<svg width="53" height="53" viewBox="0 0 53 53" fill="none" xmlns="http://www.w3.org/2000/svg">
<g filter="url(#filter0_dddddd_5752_47397)">
<path d="M46.7543 15.2041C46.3042 14.9844 46.1092 15.4044 45.8469 15.6188C45.7566 15.6879 45.6804 15.7783 45.6042 15.8598C44.9449 16.5634 44.1758 17.0242 43.1709 16.9692C41.7017 16.8877 40.447 17.3485 39.3376 18.4721C39.1019 17.0862 38.3186 16.2603 37.1277 15.7287C36.5039 15.4522 35.8729 15.1775 35.4352 14.5767C35.1304 14.1496 35.0471 13.6729 34.8947 13.2051C34.7972 12.9215 34.6997 12.6326 34.3754 12.5848C34.021 12.5298 33.8828 12.8258 33.7445 13.0739C33.1898 14.0876 32.9754 15.2041 32.9966 16.3348C33.0445 18.8797 34.1185 20.9071 36.254 22.3479C36.4968 22.5127 36.5588 22.6793 36.4826 22.9203C36.3373 23.4165 36.1636 23.8986 36.0112 24.3966C35.9137 24.7138 35.7684 24.7811 35.4281 24.6447C34.2784 24.1506 33.2341 23.4407 32.3516 22.5535C30.8328 21.0861 29.4611 19.4663 27.7491 18.1974C27.3525 17.9043 26.9452 17.6259 26.5281 17.3627C24.7825 15.6667 26.7585 14.2737 27.2157 14.1089C27.6942 13.9352 27.3805 13.3433 25.8352 13.3504C24.2898 13.3575 22.8756 13.8732 21.0732 14.5626C20.8054 14.6652 20.5298 14.7464 20.2491 14.8054C18.5649 14.488 16.8423 14.4271 15.1399 14.6246C11.7993 14.9968 9.13208 16.5776 7.17024 19.2731C4.8132 22.5127 4.2585 26.1954 4.93726 30.034C5.65146 34.0817 7.71785 37.4329 10.8919 40.0523C14.1846 42.7691 17.9754 44.1 22.3014 43.8448C24.9278 43.6942 27.8537 43.3415 31.1518 40.5485C31.9847 40.9632 32.8566 41.128 34.3063 41.2521C35.4228 41.3566 36.4968 41.1989 37.3279 41.0252C38.6305 40.7487 38.5401 39.5419 38.0705 39.3221C34.2514 37.5428 35.0896 38.2677 34.3258 37.6811C36.2682 35.3843 39.1923 32.9989 40.3371 25.2703C40.4258 24.6553 40.3496 24.269 40.3371 23.7727C40.3301 23.4715 40.3992 23.3527 40.7448 23.3191C41.7036 23.2196 42.6337 22.9336 43.4828 22.4773C45.9568 21.1251 46.9563 18.9063 47.1921 16.2444C47.2275 15.8368 47.185 15.4185 46.7543 15.2041ZM25.1918 39.1608C21.4897 36.2509 19.6944 35.2921 18.9537 35.3329C18.259 35.3754 18.3848 36.1676 18.5372 36.6851C18.6967 37.1955 18.904 37.5464 19.1947 37.9947C19.3967 38.2907 19.5349 38.732 18.9944 39.0634C17.8017 39.8006 15.73 38.8153 15.6325 38.7674C13.2206 37.3461 11.202 35.4711 9.78248 32.9067C8.41079 30.438 7.61329 27.7903 7.48215 24.9637C7.4467 24.2796 7.64696 24.0386 8.32749 23.9145C9.22088 23.7436 10.1363 23.7202 11.0372 23.8454C14.8156 24.3983 18.0303 26.0873 20.7276 28.7615C22.2659 30.2856 23.4303 32.1057 24.63 33.885C25.906 35.7742 27.2777 37.5747 29.0251 39.0492C29.6419 39.5667 30.1328 39.9601 30.6042 40.249C29.1829 40.4085 26.8116 40.4439 25.1918 39.1608ZM26.9641 27.7478C26.9637 27.6598 26.9849 27.573 27.0256 27.495C27.0664 27.4169 27.1255 27.35 27.1979 27.2999C27.2703 27.2498 27.3538 27.2181 27.4412 27.2075C27.5286 27.197 27.6173 27.2078 27.6995 27.2392C27.8044 27.2768 27.8949 27.3462 27.9584 27.4377C28.0219 27.5292 28.0553 27.6382 28.054 27.7496C28.0542 27.8215 28.0401 27.8928 28.0125 27.9593C27.9849 28.0258 27.9444 28.0861 27.8933 28.1367C27.8421 28.1874 27.7814 28.2273 27.7147 28.2543C27.648 28.2812 27.5765 28.2946 27.5046 28.2937C27.4332 28.2939 27.3624 28.2799 27.2965 28.2525C27.2305 28.225 27.1707 28.1847 27.1206 28.1339C27.0704 28.0831 27.0309 28.0227 27.0043 27.9564C26.9777 27.8901 26.9629 27.8192 26.9641 27.7478ZM32.4756 30.5763C32.1212 30.7198 31.7685 30.8439 31.43 30.8598C30.9208 30.8776 30.4211 30.7185 30.0158 30.4097C29.5302 30.0021 29.1829 29.7752 29.0375 29.0663C28.9874 28.7199 28.997 28.3675 29.0659 28.0243C29.1899 27.4448 29.0517 27.0726 28.6423 26.7359C28.3109 26.4594 27.8874 26.3832 27.4231 26.3832C27.2641 26.374 27.1097 26.3266 26.9729 26.245C26.778 26.1493 26.6185 25.9083 26.7709 25.6105C26.8205 25.5148 27.0544 25.2809 27.1111 25.2384C27.742 24.8804 28.4704 24.9973 29.1421 25.2667C29.7659 25.5219 30.2373 25.9898 30.9161 26.6526C31.609 27.4519 31.7348 27.6734 32.13 28.2724C32.4419 28.742 32.7255 29.2241 32.9187 29.7752C33.0374 30.1208 32.885 30.4026 32.4756 30.5763Z" fill="#F2F2F0"/>
</g>
<defs>
<filter id="filter0_dddddd_5752_47397" x="2.78385" y="10.694" width="46.3019" height="35.0651" filterUnits="userSpaceOnUse" color-interpolation-filters="sRGB">
<feFlood flood-opacity="0" result="BackgroundImageFix"/>
<feColorMatrix in="SourceAlpha" type="matrix" values="0 0 0 0 0 0 0 0 0 0 0 0 0 0 0 0 0 0 127 0" result="hardAlpha"/>
<feOffset/>
<feGaussianBlur stdDeviation="0.02243"/>
<feColorMatrix type="matrix" values="0 0 0 0 0.94902 0 0 0 0 0.94902 0 0 0 0 0.941176 0 0 0 1 0"/>
<feBlend mode="normal" in2="BackgroundImageFix" result="effect1_dropShadow_5752_47397"/>
<feColorMatrix in="SourceAlpha" type="matrix" values="0 0 0 0 0 0 0 0 0 0 0 0 0 0 0 0 0 0 127 0" result="hardAlpha"/>
<feOffset/>
<feGaussianBlur stdDeviation="0.0448599"/>
<feColorMatrix type="matrix" values="0 0 0 0 0.94902 0 0 0 0 0.94902 0 0 0 0 0.941176 0 0 0 1 0"/>
<feBlend mode="normal" in2="effect1_dropShadow_5752_47397" result="effect2_dropShadow_5752_47397"/>
<feColorMatrix in="SourceAlpha" type="matrix" values="0 0 0 0 0 0 0 0 0 0 0 0 0 0 0 0 0 0 127 0" result="hardAlpha"/>
<feOffset/>
<feGaussianBlur stdDeviation="0.15701"/>
<feColorMatrix type="matrix" values="0 0 0 0 0.94902 0 0 0 0 0.94902 0 0 0 0 0.941176 0 0 0 1 0"/>
<feBlend mode="normal" in2="effect2_dropShadow_5752_47397" result="effect3_dropShadow_5752_47397"/>
<feColorMatrix in="SourceAlpha" type="matrix" values="0 0 0 0 0 0 0 0 0 0 0 0 0 0 0 0 0 0 127 0" result="hardAlpha"/>
<feOffset/>
<feGaussianBlur stdDeviation="0.31402"/>
<feColorMatrix type="matrix" values="0 0 0 0 0.94902 0 0 0 0 0.94902 0 0 0 0 0.941176 0 0 0 1 0"/>
<feBlend mode="normal" in2="effect3_dropShadow_5752_47397" result="effect4_dropShadow_5752_47397"/>
<feColorMatrix in="SourceAlpha" type="matrix" values="0 0 0 0 0 0 0 0 0 0 0 0 0 0 0 0 0 0 127 0" result="hardAlpha"/>
<feOffset/>
<feGaussianBlur stdDeviation="0.538319"/>
<feColorMatrix type="matrix" values="0 0 0 0 0.94902 0 0 0 0 0.94902 0 0 0 0 0.941176 0 0 0 1 0"/>
<feBlend mode="normal" in2="effect4_dropShadow_5752_47397" result="effect5_dropShadow_5752_47397"/>
<feColorMatrix in="SourceAlpha" type="matrix" values="0 0 0 0 0 0 0 0 0 0 0 0 0 0 0 0 0 0 127 0" result="hardAlpha"/>
<feOffset/>
<feGaussianBlur stdDeviation="0.942059"/>
<feColorMatrix type="matrix" values="0 0 0 0 0.94902 0 0 0 0 0.94902 0 0 0 0 0.941176 0 0 0 1 0"/>
<feBlend mode="normal" in2="effect5_dropShadow_5752_47397" result="effect6_dropShadow_5752_47397"/>
<feBlend mode="normal" in="SourceGraphic" in2="effect6_dropShadow_5752_47397" result="shape"/>
</filter>
</defs>
</svg>
