<svg width="1369" height="174" viewBox="0 0 1369 174" fill="none" xmlns="http://www.w3.org/2000/svg">
<rect x="2" y="2" width="111" height="170" rx="55.5" fill="url(#paint0_linear_5752_47425)" stroke="url(#paint1_linear_5752_47425)" stroke-width="4"/>
<rect x="211" y="2" width="111" height="170" rx="55.5" fill="url(#paint2_linear_5752_47425)" stroke="url(#paint3_linear_5752_47425)" stroke-width="4"/>
<rect x="420" y="2" width="111" height="170" rx="55.5" fill="url(#paint4_linear_5752_47425)" stroke="url(#paint5_linear_5752_47425)" stroke-width="4"/>
<g clip-path="url(#clip0_5752_47425)">
<rect x="627" width="115" height="174" rx="57.5" fill="url(#paint6_linear_5752_47425)"/>
<g filter="url(#filter0_dddddd_5752_47425)">
<rect x="655" y="-42" width="60" height="60" rx="30" fill="#D9D9D9"/>
</g>
<g filter="url(#filter1_dddddd_5752_47425)">
<path d="M685 74L685.919 86.0808L698 87L685.919 87.9192L685 100L684.081 87.9192L672 87L684.081 86.0808L685 74Z" fill="white"/>
</g>
<g filter="url(#filter2_dddddd_5752_47425)">
<path d="M704.243 84.6744C700.581 83.1154 697.251 80.8698 694.433 78.0588C690.509 74.1268 687.709 69.2157 686.325 63.8357C686.265 63.5967 686.126 63.3849 685.931 63.2335C685.737 63.0822 685.497 63 685.251 63C685.004 63 684.765 63.0822 684.57 63.2335C684.375 63.3849 684.237 63.5967 684.176 63.8357C682.789 69.215 679.989 74.1256 676.066 78.0588C673.248 80.8695 669.918 83.115 666.256 84.6744C664.823 85.2917 663.35 85.7877 661.843 86.169C661.602 86.2281 661.389 86.3661 661.236 86.5609C661.083 86.7557 661 86.9962 661 87.2437C661 87.4913 661.083 87.7317 661.236 87.9265C661.389 88.1213 661.602 88.2593 661.843 88.3184C663.35 88.6976 664.819 89.1936 666.256 89.8108C669.918 91.3698 673.248 93.6154 676.066 96.4264C679.991 100.359 682.791 105.271 684.176 110.652C684.235 110.892 684.373 111.106 684.568 111.259C684.763 111.411 685.003 111.494 685.251 111.494C685.498 111.494 685.739 111.411 685.933 111.259C686.128 111.106 686.266 110.892 686.325 110.652C686.704 109.142 687.2 107.674 687.818 106.236C689.377 102.574 691.622 99.2441 694.433 96.4264C698.366 92.502 703.278 89.7024 708.659 88.3184C708.898 88.2577 709.109 88.119 709.261 87.9244C709.412 87.7298 709.494 87.4903 709.494 87.2437C709.494 86.9972 709.412 86.7577 709.261 86.563C709.109 86.3684 708.898 86.2298 708.659 86.169C707.149 85.7893 705.673 85.2895 704.243 84.6744Z" fill="#F2F2F0"/>
</g>
</g>
<rect x="629" y="2" width="111" height="170" rx="53" stroke="url(#paint7_linear_5752_47425)" stroke-width="4"/>
<rect x="838" y="2" width="111" height="170" rx="55.5" fill="url(#paint8_linear_5752_47425)" stroke="url(#paint9_linear_5752_47425)" stroke-width="4"/>
<rect x="1047" y="2" width="111" height="170" rx="55.5" fill="url(#paint10_linear_5752_47425)" stroke="url(#paint11_linear_5752_47425)" stroke-width="4"/>
<rect x="1256" y="2" width="111" height="170" rx="55.5" fill="url(#paint12_linear_5752_47425)" stroke="url(#paint13_linear_5752_47425)" stroke-width="4"/>
<g clip-path="url(#clip1_5752_47425)" filter="url(#filter3_dddddd_5752_47425)">
<g clip-path="url(#clip2_5752_47425)">
<path fill-rule="evenodd" clip-rule="evenodd" d="M888.871 94.9245L904.734 82.9768C905.512 82.3892 906.623 82.6182 906.995 83.5279C908.944 88.3276 908.073 94.0938 904.191 98.0528C900.312 102.012 894.912 102.879 889.977 100.901L884.586 103.448C892.319 108.84 901.708 107.506 907.576 101.517C912.23 96.7682 913.672 90.2949 912.324 84.4578L912.336 84.472C910.381 75.8977 912.817 72.4696 917.804 65.4614C917.923 65.2953 918.042 65.1292 918.159 64.959L911.596 71.6551V71.6349L888.865 94.9286M885.597 97.8279C880.045 92.4183 881.003 84.0486 885.738 79.2205C889.239 75.6485 894.977 74.1897 899.986 76.3333L905.365 73.8007C904.247 72.9628 903.024 72.2814 901.728 71.7747C898.471 70.4162 894.892 70.0695 891.442 70.7783C887.991 71.487 884.824 73.2195 882.338 75.7579C877.301 80.896 875.716 88.7977 878.437 95.5404C880.469 100.579 877.138 104.143 873.784 107.741C872.593 109.018 871.4 110.292 870.439 111.642L885.591 97.8339" fill="#F2F2F0"/>
</g>
</g>
<g filter="url(#filter4_dddddd_5752_47425)">
<path d="M1334.75 77.2041C1334.3 76.9844 1334.11 77.4044 1333.85 77.6188C1333.76 77.6879 1333.68 77.7783 1333.6 77.8598C1332.94 78.5634 1332.18 79.0242 1331.17 78.9692C1329.7 78.8877 1328.45 79.3485 1327.34 80.4721C1327.1 79.0862 1326.32 78.2603 1325.13 77.7287C1324.5 77.4522 1323.87 77.1775 1323.44 76.5767C1323.13 76.1496 1323.05 75.6729 1322.89 75.2051C1322.8 74.9215 1322.7 74.6326 1322.38 74.5848C1322.02 74.5298 1321.88 74.8258 1321.74 75.0739C1321.19 76.0876 1320.98 77.2041 1321 78.3348C1321.04 80.8797 1322.12 82.9071 1324.25 84.3479C1324.5 84.5127 1324.56 84.6793 1324.48 84.9203C1324.34 85.4165 1324.16 85.8986 1324.01 86.3966C1323.91 86.7138 1323.77 86.7811 1323.43 86.6447C1322.28 86.1506 1321.23 85.4407 1320.35 84.5535C1318.83 83.0861 1317.46 81.4663 1315.75 80.1974C1315.35 79.9043 1314.95 79.6259 1314.53 79.3627C1312.78 77.6667 1314.76 76.2737 1315.22 76.1089C1315.69 75.9352 1315.38 75.3433 1313.84 75.3504C1312.29 75.3575 1310.88 75.8732 1309.07 76.5626C1308.81 76.6652 1308.53 76.7464 1308.25 76.8054C1306.56 76.488 1304.84 76.4271 1303.14 76.6246C1299.8 76.9968 1297.13 78.5776 1295.17 81.2731C1292.81 84.5127 1292.26 88.1954 1292.94 92.034C1293.65 96.0817 1295.72 99.4329 1298.89 102.052C1302.18 104.769 1305.98 106.1 1310.3 105.845C1312.93 105.694 1315.85 105.341 1319.15 102.548C1319.98 102.963 1320.86 103.128 1322.31 103.252C1323.42 103.357 1324.5 103.199 1325.33 103.025C1326.63 102.749 1326.54 101.542 1326.07 101.322C1322.25 99.5428 1323.09 100.268 1322.33 99.6811C1324.27 97.3843 1327.19 94.9989 1328.34 87.2703C1328.43 86.6553 1328.35 86.269 1328.34 85.7727C1328.33 85.4715 1328.4 85.3527 1328.74 85.3191C1329.7 85.2196 1330.63 84.9336 1331.48 84.4773C1333.96 83.1251 1334.96 80.9063 1335.19 78.2444C1335.23 77.8368 1335.18 77.4185 1334.75 77.2041ZM1313.19 101.161C1309.49 98.2509 1307.69 97.2921 1306.95 97.3329C1306.26 97.3754 1306.38 98.1676 1306.54 98.6851C1306.7 99.1955 1306.9 99.5464 1307.19 99.9947C1307.4 100.291 1307.53 100.732 1306.99 101.063C1305.8 101.801 1303.73 100.815 1303.63 100.767C1301.22 99.3461 1299.2 97.4711 1297.78 94.9067C1296.41 92.438 1295.61 89.7903 1295.48 86.9637C1295.45 86.2796 1295.65 86.0386 1296.33 85.9145C1297.22 85.7436 1298.14 85.7202 1299.04 85.8454C1302.82 86.3983 1306.03 88.0873 1308.73 90.7615C1310.27 92.2856 1311.43 94.1057 1312.63 95.885C1313.91 97.7742 1315.28 99.5747 1317.03 101.049C1317.64 101.567 1318.13 101.96 1318.6 102.249C1317.18 102.408 1314.81 102.444 1313.19 101.161ZM1314.96 89.7478C1314.96 89.6598 1314.98 89.573 1315.03 89.495C1315.07 89.4169 1315.13 89.35 1315.2 89.2999C1315.27 89.2498 1315.35 89.2181 1315.44 89.2075C1315.53 89.197 1315.62 89.2078 1315.7 89.2392C1315.8 89.2768 1315.89 89.3462 1315.96 89.4377C1316.02 89.5292 1316.06 89.6382 1316.05 89.7496C1316.05 89.8215 1316.04 89.8928 1316.01 89.9593C1315.98 90.0258 1315.94 90.0861 1315.89 90.1367C1315.84 90.1874 1315.78 90.2273 1315.71 90.2543C1315.65 90.2812 1315.58 90.2946 1315.5 90.2937C1315.43 90.2939 1315.36 90.2799 1315.3 90.2525C1315.23 90.225 1315.17 90.1847 1315.12 90.1339C1315.07 90.0831 1315.03 90.0227 1315 89.9564C1314.98 89.8901 1314.96 89.8192 1314.96 89.7478ZM1320.48 92.5763C1320.12 92.7198 1319.77 92.8439 1319.43 92.8598C1318.92 92.8776 1318.42 92.7185 1318.02 92.4097C1317.53 92.0021 1317.18 91.7752 1317.04 91.0663C1316.99 90.7199 1317 90.3675 1317.07 90.0243C1317.19 89.4448 1317.05 89.0726 1316.64 88.7359C1316.31 88.4594 1315.89 88.3832 1315.42 88.3832C1315.26 88.374 1315.11 88.3266 1314.97 88.245C1314.78 88.1493 1314.62 87.9083 1314.77 87.6105C1314.82 87.5148 1315.05 87.2809 1315.11 87.2384C1315.74 86.8804 1316.47 86.9973 1317.14 87.2667C1317.77 87.5219 1318.24 87.9898 1318.92 88.6526C1319.61 89.4519 1319.73 89.6734 1320.13 90.2724C1320.44 90.742 1320.73 91.2241 1320.92 91.7752C1321.04 92.1208 1320.89 92.4026 1320.48 92.5763Z" fill="#F2F2F0"/>
</g>
<g filter="url(#filter5_dddddd_5752_47425)">
<path fill-rule="evenodd" clip-rule="evenodd" d="M1123.64 84.1861C1124.17 82.6181 1124.36 80.9542 1124.18 79.3087C1124.01 77.6632 1123.48 76.0749 1122.63 74.653C1120.05 70.2263 1114.87 67.9474 1109.82 69.0191C1108.7 67.7788 1107.33 66.7897 1105.8 66.1169C1104.27 65.4441 1102.61 65.1028 1100.94 65.1156C1095.77 65.105 1091.18 68.39 1089.59 73.2445C1087.96 73.5718 1086.41 74.243 1085.05 75.2136C1083.7 76.1842 1082.56 77.4319 1081.73 78.8742C1080.46 81.0224 1079.92 83.5204 1080.19 85.9994C1080.45 88.4784 1081.5 90.8069 1083.19 92.6412C1082.66 94.2094 1082.48 95.8735 1082.65 97.5195C1082.83 99.1654 1083.36 100.754 1084.2 102.176C1086.78 106.603 1091.96 108.88 1097.02 107.81C1098.14 109.05 1099.51 110.039 1101.03 110.712C1102.56 111.384 1104.22 111.725 1105.89 111.712C1111.06 111.724 1115.65 108.437 1117.24 103.579C1118.88 103.251 1120.43 102.58 1121.79 101.608C1123.14 100.637 1124.28 99.3882 1125.11 97.9447C1126.38 95.7966 1126.91 93.2997 1126.65 90.8221C1126.39 88.3445 1125.33 86.0174 1123.65 84.184L1123.64 84.1861ZM1105.89 108.666C1103.83 108.671 1101.82 107.957 1100.23 106.645C1100.3 106.607 1100.42 106.54 1100.51 106.489L1109.91 101.13C1110.14 100.999 1110.34 100.808 1110.48 100.576C1110.61 100.344 1110.68 100.079 1110.68 99.8107V86.7298L1114.66 88.994C1114.7 89.0152 1114.73 89.0554 1114.73 89.0999V99.9335C1114.73 104.75 1110.77 108.655 1105.89 108.666ZM1086.88 100.656C1085.84 98.8926 1085.47 96.8177 1085.82 94.8037C1085.89 94.846 1086.01 94.9202 1086.1 94.9689L1095.51 100.327C1095.98 100.603 1096.57 100.603 1097.05 100.327L1108.53 93.787V98.3153C1108.53 98.3386 1108.53 98.3617 1108.52 98.3827C1108.51 98.4038 1108.49 98.4221 1108.47 98.4361L1098.97 103.85C1094.73 106.256 1089.33 104.824 1086.88 100.652L1086.88 100.656ZM1084.4 80.3991C1085.44 78.6242 1087.07 77.2706 1089.01 76.574L1089.01 76.8938V87.6109C1089 87.88 1089.07 88.1445 1089.21 88.377C1089.35 88.6094 1089.54 88.8012 1089.78 88.9326L1101.26 95.4709L1097.28 97.7371C1097.26 97.7497 1097.24 97.7573 1097.22 97.7591C1097.19 97.761 1097.17 97.7571 1097.15 97.7477L1087.64 92.3277C1083.42 89.9132 1081.97 84.5801 1084.4 80.4034L1084.4 80.3991ZM1117.06 87.8969L1105.58 81.3565L1109.55 79.0944C1109.57 79.0815 1109.59 79.0735 1109.61 79.0713C1109.64 79.0691 1109.66 79.0727 1109.68 79.0817L1119.19 84.4975C1123.42 86.912 1124.87 92.2536 1122.43 96.4282C1121.39 98.202 1119.76 99.5558 1117.82 100.255V89.2185C1117.83 88.9499 1117.76 88.6859 1117.62 88.4539C1117.49 88.2218 1117.29 88.0302 1117.06 87.899V87.8969ZM1121.01 82.0236C1120.92 81.9674 1120.82 81.9123 1120.73 81.8584L1111.33 76.4999C1111.09 76.3648 1110.83 76.2937 1110.55 76.2937C1110.28 76.2937 1110.02 76.3648 1109.78 76.4999L1098.3 83.0403V78.512C1098.3 78.4887 1098.31 78.4656 1098.32 78.4446C1098.33 78.4236 1098.34 78.4053 1098.36 78.3912L1107.86 72.9797C1112.1 70.5716 1117.51 72.0055 1119.95 76.1843C1120.98 77.9486 1121.36 80.0158 1121.01 82.0236ZM1096.14 90.0932L1092.17 87.8312C1092.15 87.821 1092.13 87.8058 1092.12 87.7869C1092.1 87.7681 1092.09 87.7461 1092.09 87.7232V76.8896C1092.09 72.0669 1096.06 68.1592 1100.95 68.1634C1103.01 68.1634 1105.01 68.8793 1106.6 70.184C1106.53 70.2221 1106.41 70.2899 1106.33 70.3386L1096.92 75.6971C1096.69 75.8278 1096.49 76.0192 1096.36 76.2513C1096.22 76.4834 1096.15 76.7477 1096.15 77.0167L1096.14 90.0911V90.0932ZM1098.3 85.5014L1103.42 82.5891L1108.53 85.5014V91.3259L1103.42 94.2382L1098.3 91.3259V85.5014H1098.3Z" fill="#F2F2F0"/>
</g>
<g filter="url(#filter6_dddddd_5752_47425)">
<path d="M460.143 94.4368L469.308 89.3266L469.463 88.8826L469.308 88.6355H468.863L467.329 88.5428L462.091 88.4019L457.549 88.2146L453.149 87.9791L452.041 87.7455L451 86.3844L451.107 85.7049L452.039 85.0852L453.371 85.201L456.322 85.3998L460.745 85.7049L463.953 85.8921L468.708 86.3844H469.463L469.57 86.0813L469.31 85.8921L469.11 85.7049L464.531 82.6237L459.576 79.3649L456.982 77.4884L455.576 76.5405L454.87 75.6486L454.563 73.7026L455.837 72.3088L457.547 72.4246L457.984 72.5423L459.718 73.8667L463.423 76.7162L468.259 80.2549L468.968 80.8418L469.25 80.643L469.286 80.502L468.968 79.9731L466.337 75.2509L463.529 70.4438L462.279 68.4515L461.949 67.2565C461.823 66.7975 461.755 66.3247 461.747 65.8491L463.199 63.8935L464.001 63.6348L465.935 63.8935L466.751 64.5962L467.954 67.326L469.9 71.6292L472.919 77.4788L473.805 79.2124L474.277 80.8186L474.453 81.3109H474.76V81.0291L475.009 77.7355L475.469 73.691L475.915 68.4882L476.071 67.021L476.801 65.2642L478.251 64.3143L479.385 64.8549L480.317 66.1773L480.187 67.0345L479.632 70.6079L478.546 76.2123L477.839 79.9615H478.251L478.723 79.4943L480.635 76.973L483.843 72.9883L485.26 71.4053L486.911 69.66L487.973 68.828H489.979L491.454 71.0076L490.794 73.2586L488.728 75.859L487.018 78.0637L484.563 81.3457L483.029 83.9712L483.171 84.1836L483.536 84.145L489.082 82.9751L492.078 82.4345L495.652 81.8264L497.27 82.5754L497.446 83.338L496.809 84.896L492.986 85.8342L488.503 86.7261L481.826 88.2957L481.744 88.3536L481.839 88.4714L484.847 88.7532L486.132 88.8227H489.282L495.145 89.2571L496.679 90.2648L497.6 91.4965L497.446 92.4329L495.087 93.6298L491.903 92.8788L484.468 91.122L481.921 90.4869H481.567V90.6992L483.69 92.7611L487.585 96.2554L492.456 100.754L492.703 101.869L492.078 102.748L491.417 102.653L487.136 99.4543L485.484 98.0122L481.744 94.8847H481.496V95.2129L482.358 96.4658L486.911 103.263L487.148 105.348L486.818 106.03L485.637 106.441L484.34 106.205L481.672 102.489L478.925 98.3056L476.706 94.5545L476.434 94.709L475.125 108.713L474.511 109.428L473.096 109.968L471.917 109.078L471.292 107.636L471.917 104.786L472.673 101.072L473.284 98.1183L473.84 94.4503L474.17 93.2302L474.146 93.1491L473.875 93.1838L471.09 96.9813L466.857 102.667L463.506 106.229L462.702 106.545L461.31 105.831L461.44 104.553L462.219 103.416L466.856 97.5546L469.651 93.9213L471.457 91.8247L471.446 91.5197H471.339L459.023 99.4659L456.829 99.7477L455.883 98.8674L456.002 97.4272L456.45 96.9581L460.155 94.4252L460.143 94.4368Z" fill="#F2F2F0"/>
</g>
<g clip-path="url(#clip3_5752_47425)" filter="url(#filter7_dddddd_5752_47425)">
<g clip-path="url(#clip4_5752_47425)">
<path d="M47.5948 73.5645H47.5492L47.4902 78.5379H47.5321C50.7938 78.5379 53.3252 81.1187 58.8293 90.417L59.1621 90.9819L59.1849 91.0199L62.266 86.3832L62.2431 86.347C61.5699 85.2447 60.8736 84.1566 60.1549 83.0834C59.4473 82.0243 58.7019 80.9909 57.9202 79.9852C54.2819 75.337 51.2388 73.5645 47.5948 73.5645Z" fill="#F2F2F0"/>
<path d="M47.5482 73.5645C43.8909 73.5835 40.6519 75.957 38.3183 79.5934C38.312 79.6042 38.3056 79.615 38.2993 79.6258L42.5862 81.967L42.6071 81.9346C43.9726 79.8749 45.6691 78.5607 47.4911 78.5398H47.5311L47.5919 73.5645H47.5482Z" fill="#F2F2F0"/>
<path d="M38.3171 79.5957L38.2961 79.628C36.7594 82.0244 35.6145 84.9685 34.9983 88.1428L34.9888 88.1846L39.8081 89.3257L39.8158 89.2839C40.3293 86.4938 41.3106 83.9054 42.5849 81.9712L42.6058 81.9388L38.3171 79.5957Z" fill="#F2F2F0"/>
<path d="M39.8156 89.2837L34.9982 88.1426L34.9887 88.1844C34.652 89.9303 34.4809 91.7048 34.4771 93.4831V93.5268L39.4181 93.97V93.9262C39.4002 92.37 39.5339 90.8158 39.8175 89.2856L39.8156 89.2837Z" fill="#F2F2F0"/>
<path d="M39.5686 95.5058C39.48 94.9948 39.4298 94.478 39.4184 93.9595V93.9177L34.4773 93.4727V93.5183C34.4717 94.572 34.5647 95.6238 34.755 96.6602L39.5762 95.5476C39.5737 95.5337 39.5711 95.5197 39.5686 95.5058Z" fill="#F2F2F0"/>
<path d="M40.6967 98.0832C40.1565 97.4936 39.7761 96.6454 39.5764 95.5575L39.5688 95.5176L34.7476 96.6302L34.7552 96.6701C35.1203 98.591 35.8354 100.189 36.8586 101.4L36.8853 101.432L40.7233 98.1136C40.7137 98.1036 40.7061 98.0934 40.6967 98.0832Z" fill="#F2F2F0"/>
<path d="M54.9791 84.3223C52.073 88.7917 50.3118 91.597 50.3118 91.597C46.4415 97.683 45.1026 99.0466 42.9496 99.0466C42.5262 99.0577 42.1055 98.9771 41.7161 98.8103C41.3268 98.6435 40.9781 98.3946 40.694 98.0805L36.8579 101.397L36.8845 101.43C38.2995 103.082 40.2927 103.999 42.7614 103.999C46.4948 103.999 49.1783 102.234 53.952 93.8621L57.3108 87.9092C56.5656 86.6926 55.7894 85.4965 54.9791 84.3223Z" fill="#F2F2F0"/>
<path d="M60.1565 77.2695L60.1261 77.2999C59.3654 78.1177 58.6312 79.0268 57.9199 79.993C58.6388 80.9116 59.3806 81.9405 60.1546 83.093C61.0675 81.6799 61.9196 80.535 62.7545 79.6563L62.7849 79.6259L60.1565 77.2695Z" fill="#F2F2F0"/>
<path d="M74.2608 76.8224C72.2353 74.7683 69.8199 73.5645 67.2371 73.5645C64.5136 73.5645 62.2219 75.0612 60.1564 77.2617L60.126 77.2921L62.7544 79.6505L62.7848 79.6181C64.1447 78.1974 65.4627 77.488 66.9233 77.488C68.4943 77.488 69.9663 78.2298 71.2406 79.5326L71.2691 79.563L74.2912 76.8528L74.2608 76.8224Z" fill="#F2F2F0"/>
<path d="M80.1187 92.8248C80.0046 86.231 77.7033 80.3371 74.2913 76.8566L74.2609 76.8262L71.2407 79.5345L71.2692 79.5649C73.8368 82.2123 75.5998 87.1344 75.7596 92.8229V92.8667H80.1187V92.8248Z" fill="#F2F2F0"/>
<path d="M80.1188 92.8719V92.8281H75.7597V92.87C75.7673 93.1362 75.7711 93.4063 75.7711 93.6764C75.7711 95.2264 75.541 96.4797 75.0712 97.385L75.0503 97.4269L78.2987 100.816L78.3234 100.778C79.5026 98.9522 80.1226 96.417 80.1226 93.3416C80.1226 93.1838 80.1226 93.0278 80.1188 92.8719Z" fill="#F2F2F0"/>
<path d="M75.0711 97.3809L75.0502 97.4189C74.6432 98.1835 74.0631 98.6932 73.3062 98.9157L74.7858 103.598C75.071 103.502 75.3493 103.386 75.6188 103.252C76.672 102.72 77.5676 101.921 78.2168 100.935L78.3005 100.812L78.3233 100.774L75.0711 97.3809Z" fill="#F2F2F0"/>
<path d="M72.3623 99.0417C71.864 99.0417 71.4265 98.9675 70.9967 98.7754L69.479 103.572C70.3329 103.863 71.2421 103.994 72.2558 103.994C73.1915 103.994 74.0492 103.855 74.8271 103.585L73.3436 98.9028C73.026 98.9979 72.697 99.0455 72.3623 99.0417Z" fill="#F2F2F0"/>
<path d="M69.3251 97.4054L69.2985 97.373L65.8066 101.013L65.8371 101.046C67.0486 102.343 68.2068 103.147 69.521 103.588L71.0368 98.7957C70.4834 98.5579 69.947 98.1243 69.3251 97.4054Z" fill="#F2F2F0"/>
<path d="M69.2987 97.371C68.2526 96.15 66.9555 94.115 64.9186 90.8285L62.2636 86.3857L62.2427 86.3477L59.1616 90.9844L59.1844 91.0225L61.0654 94.1948C62.8893 97.2569 64.3747 99.4707 65.8068 101.013L65.8372 101.044L69.3253 97.4033C69.3164 97.3926 69.3075 97.3818 69.2987 97.371Z" fill="#F2F2F0"/>
</g>
</g>
<g filter="url(#filter8_dddddd_5752_47425)">
<path d="M265.639 68.7348C266.387 70.0471 267.13 71.3632 267.872 72.6813C267.902 72.734 267.945 72.7778 267.998 72.8082C268.05 72.8386 268.11 72.8545 268.171 72.8543H278.73C279.061 72.8543 279.342 73.0635 279.578 73.4762L282.343 78.3641C282.705 79.005 282.8 79.2732 282.389 79.956C281.895 80.7738 281.413 81.5992 280.944 82.4284L280.246 83.6798C280.044 84.0526 279.822 84.2124 280.17 84.6536L285.213 93.4727C285.541 94.0451 285.425 94.4122 285.132 94.9371C284.301 96.4301 283.454 97.9116 282.593 99.3875C282.29 99.9048 281.923 100.101 281.299 100.091C279.822 100.061 278.348 100.072 276.874 100.122C276.842 100.123 276.811 100.133 276.784 100.149C276.758 100.166 276.735 100.189 276.72 100.217C275.019 103.23 273.304 106.235 271.575 109.232C271.254 109.789 270.852 109.922 270.196 109.924C268.3 109.93 266.389 109.932 264.458 109.928C264.278 109.927 264.102 109.879 263.947 109.789C263.791 109.698 263.663 109.568 263.574 109.412L261.035 104.994C261.02 104.965 260.997 104.941 260.969 104.925C260.941 104.908 260.909 104.9 260.877 104.901H251.143C250.601 104.958 250.091 104.899 249.612 104.726L246.563 99.4579C246.473 99.3019 246.425 99.125 246.425 98.9449C246.424 98.7647 246.471 98.5875 246.56 98.4309L248.855 94.3989C248.888 94.3418 248.905 94.2773 248.905 94.2115C248.905 94.1458 248.888 94.0812 248.855 94.0242C247.659 91.9539 246.471 89.8796 245.289 87.8012L243.787 85.1481C243.482 84.5585 243.458 84.2048 243.967 83.3128C244.852 81.7666 245.73 80.2222 246.605 78.6798C246.856 78.2348 247.183 78.0446 247.716 78.0427C249.357 78.0358 250.999 78.0351 252.64 78.0408C252.681 78.0404 252.722 78.0292 252.758 78.0082C252.793 77.9871 252.823 77.957 252.843 77.9209L258.18 68.6112C258.261 68.4696 258.378 68.3518 258.519 68.2696C258.659 68.1875 258.82 68.144 258.983 68.1434C259.979 68.1415 260.985 68.1434 261.993 68.1319L263.928 68.0882C264.576 68.0825 265.305 68.1491 265.639 68.7348ZM259.112 69.5013C259.092 69.5013 259.072 69.5066 259.055 69.5166C259.038 69.5266 259.023 69.541 259.013 69.5584L253.562 79.0963C253.536 79.1413 253.499 79.1786 253.454 79.2046C253.409 79.2306 253.358 79.2444 253.306 79.2447H247.855C247.748 79.2447 247.722 79.2922 247.777 79.3854L258.827 98.7009C258.874 98.7808 258.851 98.8188 258.762 98.8207L253.446 98.8493C253.369 98.8467 253.292 98.866 253.224 98.905C253.157 98.944 253.102 99.0012 253.066 99.0699L250.555 103.463C250.472 103.612 250.515 103.688 250.685 103.688L261.556 103.703C261.643 103.703 261.708 103.741 261.754 103.819L264.422 108.486C264.51 108.64 264.597 108.642 264.686 108.486L274.207 91.8256L275.696 89.1972C275.705 89.181 275.719 89.1675 275.735 89.158C275.751 89.1486 275.769 89.1437 275.788 89.1437C275.806 89.1437 275.825 89.1486 275.841 89.158C275.857 89.1675 275.87 89.181 275.879 89.1972L278.587 94.009C278.608 94.045 278.637 94.0749 278.673 94.0956C278.709 94.1164 278.749 94.1272 278.791 94.1269L284.046 94.0889C284.059 94.089 284.072 94.0855 284.084 94.0788C284.096 94.0722 284.105 94.0625 284.112 94.0508C284.119 94.0392 284.122 94.0261 284.122 94.0128C284.122 93.9995 284.119 93.9864 284.112 93.9747L278.597 84.3018C278.577 84.2694 278.566 84.2322 278.566 84.1943C278.566 84.1564 278.577 84.1192 278.597 84.0869L279.154 83.1226L281.284 79.3626C281.33 79.2846 281.307 79.2447 281.218 79.2447H259.165C259.053 79.2447 259.026 79.1952 259.083 79.0982L261.811 74.334C261.831 74.3015 261.842 74.2639 261.842 74.2256C261.842 74.1872 261.831 74.1496 261.811 74.1172L259.213 69.5603C259.203 69.5423 259.188 69.5273 259.17 69.5169C259.153 69.5065 259.133 69.5011 259.112 69.5013ZM271.075 84.7544C271.162 84.7544 271.185 84.7925 271.139 84.8685L269.557 87.6548L264.587 96.3749C264.578 96.3919 264.564 96.406 264.548 96.4157C264.531 96.4254 264.512 96.4304 264.492 96.4301C264.473 96.43 264.454 96.4249 264.437 96.4152C264.421 96.4055 264.407 96.3916 264.397 96.3749L257.83 84.9028C257.792 84.8381 257.811 84.8039 257.883 84.8001L258.294 84.7772L271.079 84.7544H271.075Z" fill="#F2F2F0"/>
</g>
<defs>
<filter id="filter0_dddddd_5752_47425" x="428.2" y="-268.8" width="513.6" height="513.6" filterUnits="userSpaceOnUse" color-interpolation-filters="sRGB">
<feFlood flood-opacity="0" result="BackgroundImageFix"/>
<feColorMatrix in="SourceAlpha" type="matrix" values="0 0 0 0 0 0 0 0 0 0 0 0 0 0 0 0 0 0 127 0" result="hardAlpha"/>
<feOffset/>
<feGaussianBlur stdDeviation="2.7"/>
<feColorMatrix type="matrix" values="0 0 0 0 0.85098 0 0 0 0 0.85098 0 0 0 0 0.85098 0 0 0 1 0"/>
<feBlend mode="normal" in2="BackgroundImageFix" result="effect1_dropShadow_5752_47425"/>
<feColorMatrix in="SourceAlpha" type="matrix" values="0 0 0 0 0 0 0 0 0 0 0 0 0 0 0 0 0 0 127 0" result="hardAlpha"/>
<feOffset/>
<feGaussianBlur stdDeviation="5.4"/>
<feColorMatrix type="matrix" values="0 0 0 0 0.85098 0 0 0 0 0.85098 0 0 0 0 0.85098 0 0 0 1 0"/>
<feBlend mode="normal" in2="effect1_dropShadow_5752_47425" result="effect2_dropShadow_5752_47425"/>
<feColorMatrix in="SourceAlpha" type="matrix" values="0 0 0 0 0 0 0 0 0 0 0 0 0 0 0 0 0 0 127 0" result="hardAlpha"/>
<feOffset/>
<feGaussianBlur stdDeviation="18.9"/>
<feColorMatrix type="matrix" values="0 0 0 0 0.85098 0 0 0 0 0.85098 0 0 0 0 0.85098 0 0 0 1 0"/>
<feBlend mode="normal" in2="effect2_dropShadow_5752_47425" result="effect3_dropShadow_5752_47425"/>
<feColorMatrix in="SourceAlpha" type="matrix" values="0 0 0 0 0 0 0 0 0 0 0 0 0 0 0 0 0 0 127 0" result="hardAlpha"/>
<feOffset/>
<feGaussianBlur stdDeviation="37.8"/>
<feColorMatrix type="matrix" values="0 0 0 0 0.85098 0 0 0 0 0.85098 0 0 0 0 0.85098 0 0 0 1 0"/>
<feBlend mode="normal" in2="effect3_dropShadow_5752_47425" result="effect4_dropShadow_5752_47425"/>
<feColorMatrix in="SourceAlpha" type="matrix" values="0 0 0 0 0 0 0 0 0 0 0 0 0 0 0 0 0 0 127 0" result="hardAlpha"/>
<feOffset/>
<feGaussianBlur stdDeviation="64.8"/>
<feColorMatrix type="matrix" values="0 0 0 0 0.85098 0 0 0 0 0.85098 0 0 0 0 0.85098 0 0 0 1 0"/>
<feBlend mode="normal" in2="effect4_dropShadow_5752_47425" result="effect5_dropShadow_5752_47425"/>
<feColorMatrix in="SourceAlpha" type="matrix" values="0 0 0 0 0 0 0 0 0 0 0 0 0 0 0 0 0 0 127 0" result="hardAlpha"/>
<feOffset/>
<feGaussianBlur stdDeviation="113.4"/>
<feColorMatrix type="matrix" values="0 0 0 0 0.85098 0 0 0 0 0.85098 0 0 0 0 0.85098 0 0 0 1 0"/>
<feBlend mode="normal" in2="effect5_dropShadow_5752_47425" result="effect6_dropShadow_5752_47425"/>
<feBlend mode="normal" in="SourceGraphic" in2="effect6_dropShadow_5752_47425" result="shape"/>
</filter>
<filter id="filter1_dddddd_5752_47425" x="645.54" y="47.54" width="78.92" height="78.92" filterUnits="userSpaceOnUse" color-interpolation-filters="sRGB">
<feFlood flood-opacity="0" result="BackgroundImageFix"/>
<feColorMatrix in="SourceAlpha" type="matrix" values="0 0 0 0 0 0 0 0 0 0 0 0 0 0 0 0 0 0 127 0" result="hardAlpha"/>
<feOffset/>
<feGaussianBlur stdDeviation="0.315"/>
<feColorMatrix type="matrix" values="0 0 0 0 1 0 0 0 0 1 0 0 0 0 1 0 0 0 1 0"/>
<feBlend mode="normal" in2="BackgroundImageFix" result="effect1_dropShadow_5752_47425"/>
<feColorMatrix in="SourceAlpha" type="matrix" values="0 0 0 0 0 0 0 0 0 0 0 0 0 0 0 0 0 0 127 0" result="hardAlpha"/>
<feOffset/>
<feGaussianBlur stdDeviation="0.63"/>
<feColorMatrix type="matrix" values="0 0 0 0 1 0 0 0 0 1 0 0 0 0 1 0 0 0 1 0"/>
<feBlend mode="normal" in2="effect1_dropShadow_5752_47425" result="effect2_dropShadow_5752_47425"/>
<feColorMatrix in="SourceAlpha" type="matrix" values="0 0 0 0 0 0 0 0 0 0 0 0 0 0 0 0 0 0 127 0" result="hardAlpha"/>
<feOffset/>
<feGaussianBlur stdDeviation="2.205"/>
<feColorMatrix type="matrix" values="0 0 0 0 1 0 0 0 0 1 0 0 0 0 1 0 0 0 1 0"/>
<feBlend mode="normal" in2="effect2_dropShadow_5752_47425" result="effect3_dropShadow_5752_47425"/>
<feColorMatrix in="SourceAlpha" type="matrix" values="0 0 0 0 0 0 0 0 0 0 0 0 0 0 0 0 0 0 127 0" result="hardAlpha"/>
<feOffset/>
<feGaussianBlur stdDeviation="4.41"/>
<feColorMatrix type="matrix" values="0 0 0 0 1 0 0 0 0 1 0 0 0 0 1 0 0 0 1 0"/>
<feBlend mode="normal" in2="effect3_dropShadow_5752_47425" result="effect4_dropShadow_5752_47425"/>
<feColorMatrix in="SourceAlpha" type="matrix" values="0 0 0 0 0 0 0 0 0 0 0 0 0 0 0 0 0 0 127 0" result="hardAlpha"/>
<feOffset/>
<feGaussianBlur stdDeviation="7.56"/>
<feColorMatrix type="matrix" values="0 0 0 0 1 0 0 0 0 1 0 0 0 0 1 0 0 0 1 0"/>
<feBlend mode="normal" in2="effect4_dropShadow_5752_47425" result="effect5_dropShadow_5752_47425"/>
<feColorMatrix in="SourceAlpha" type="matrix" values="0 0 0 0 0 0 0 0 0 0 0 0 0 0 0 0 0 0 127 0" result="hardAlpha"/>
<feOffset/>
<feGaussianBlur stdDeviation="13.23"/>
<feColorMatrix type="matrix" values="0 0 0 0 1 0 0 0 0 1 0 0 0 0 1 0 0 0 1 0"/>
<feBlend mode="normal" in2="effect5_dropShadow_5752_47425" result="effect6_dropShadow_5752_47425"/>
<feBlend mode="normal" in="SourceGraphic" in2="effect6_dropShadow_5752_47425" result="shape"/>
</filter>
<filter id="filter2_dddddd_5752_47425" x="655.949" y="57.9495" width="58.5952" height="58.5952" filterUnits="userSpaceOnUse" color-interpolation-filters="sRGB">
<feFlood flood-opacity="0" result="BackgroundImageFix"/>
<feColorMatrix in="SourceAlpha" type="matrix" values="0 0 0 0 0 0 0 0 0 0 0 0 0 0 0 0 0 0 127 0" result="hardAlpha"/>
<feOffset/>
<feGaussianBlur stdDeviation="0.0601254"/>
<feColorMatrix type="matrix" values="0 0 0 0 0.94902 0 0 0 0 0.94902 0 0 0 0 0.941176 0 0 0 1 0"/>
<feBlend mode="normal" in2="BackgroundImageFix" result="effect1_dropShadow_5752_47425"/>
<feColorMatrix in="SourceAlpha" type="matrix" values="0 0 0 0 0 0 0 0 0 0 0 0 0 0 0 0 0 0 127 0" result="hardAlpha"/>
<feOffset/>
<feGaussianBlur stdDeviation="0.120251"/>
<feColorMatrix type="matrix" values="0 0 0 0 0.94902 0 0 0 0 0.94902 0 0 0 0 0.941176 0 0 0 1 0"/>
<feBlend mode="normal" in2="effect1_dropShadow_5752_47425" result="effect2_dropShadow_5752_47425"/>
<feColorMatrix in="SourceAlpha" type="matrix" values="0 0 0 0 0 0 0 0 0 0 0 0 0 0 0 0 0 0 127 0" result="hardAlpha"/>
<feOffset/>
<feGaussianBlur stdDeviation="0.420878"/>
<feColorMatrix type="matrix" values="0 0 0 0 0.94902 0 0 0 0 0.94902 0 0 0 0 0.941176 0 0 0 1 0"/>
<feBlend mode="normal" in2="effect2_dropShadow_5752_47425" result="effect3_dropShadow_5752_47425"/>
<feColorMatrix in="SourceAlpha" type="matrix" values="0 0 0 0 0 0 0 0 0 0 0 0 0 0 0 0 0 0 127 0" result="hardAlpha"/>
<feOffset/>
<feGaussianBlur stdDeviation="0.841755"/>
<feColorMatrix type="matrix" values="0 0 0 0 0.94902 0 0 0 0 0.94902 0 0 0 0 0.941176 0 0 0 1 0"/>
<feBlend mode="normal" in2="effect3_dropShadow_5752_47425" result="effect4_dropShadow_5752_47425"/>
<feColorMatrix in="SourceAlpha" type="matrix" values="0 0 0 0 0 0 0 0 0 0 0 0 0 0 0 0 0 0 127 0" result="hardAlpha"/>
<feOffset/>
<feGaussianBlur stdDeviation="1.44301"/>
<feColorMatrix type="matrix" values="0 0 0 0 0.94902 0 0 0 0 0.94902 0 0 0 0 0.941176 0 0 0 1 0"/>
<feBlend mode="normal" in2="effect4_dropShadow_5752_47425" result="effect5_dropShadow_5752_47425"/>
<feColorMatrix in="SourceAlpha" type="matrix" values="0 0 0 0 0 0 0 0 0 0 0 0 0 0 0 0 0 0 127 0" result="hardAlpha"/>
<feOffset/>
<feGaussianBlur stdDeviation="2.52527"/>
<feColorMatrix type="matrix" values="0 0 0 0 0.94902 0 0 0 0 0.94902 0 0 0 0 0.941176 0 0 0 1 0"/>
<feBlend mode="normal" in2="effect5_dropShadow_5752_47425" result="effect6_dropShadow_5752_47425"/>
<feBlend mode="normal" in="SourceGraphic" in2="effect6_dropShadow_5752_47425" result="shape"/>
</filter>
<filter id="filter3_dddddd_5752_47425" x="868.651" y="62.6514" width="51.2969" height="51.2969" filterUnits="userSpaceOnUse" color-interpolation-filters="sRGB">
<feFlood flood-opacity="0" result="BackgroundImageFix"/>
<feColorMatrix in="SourceAlpha" type="matrix" values="0 0 0 0 0 0 0 0 0 0 0 0 0 0 0 0 0 0 127 0" result="hardAlpha"/>
<feOffset/>
<feGaussianBlur stdDeviation="0.0279598"/>
<feColorMatrix type="matrix" values="0 0 0 0 1 0 0 0 0 1 0 0 0 0 1 0 0 0 1 0"/>
<feBlend mode="normal" in2="BackgroundImageFix" result="effect1_dropShadow_5752_47425"/>
<feColorMatrix in="SourceAlpha" type="matrix" values="0 0 0 0 0 0 0 0 0 0 0 0 0 0 0 0 0 0 127 0" result="hardAlpha"/>
<feOffset/>
<feGaussianBlur stdDeviation="0.0559195"/>
<feColorMatrix type="matrix" values="0 0 0 0 1 0 0 0 0 1 0 0 0 0 1 0 0 0 1 0"/>
<feBlend mode="normal" in2="effect1_dropShadow_5752_47425" result="effect2_dropShadow_5752_47425"/>
<feColorMatrix in="SourceAlpha" type="matrix" values="0 0 0 0 0 0 0 0 0 0 0 0 0 0 0 0 0 0 127 0" result="hardAlpha"/>
<feOffset/>
<feGaussianBlur stdDeviation="0.195718"/>
<feColorMatrix type="matrix" values="0 0 0 0 1 0 0 0 0 1 0 0 0 0 1 0 0 0 1 0"/>
<feBlend mode="normal" in2="effect2_dropShadow_5752_47425" result="effect3_dropShadow_5752_47425"/>
<feColorMatrix in="SourceAlpha" type="matrix" values="0 0 0 0 0 0 0 0 0 0 0 0 0 0 0 0 0 0 127 0" result="hardAlpha"/>
<feOffset/>
<feGaussianBlur stdDeviation="0.391437"/>
<feColorMatrix type="matrix" values="0 0 0 0 1 0 0 0 0 1 0 0 0 0 1 0 0 0 1 0"/>
<feBlend mode="normal" in2="effect3_dropShadow_5752_47425" result="effect4_dropShadow_5752_47425"/>
<feColorMatrix in="SourceAlpha" type="matrix" values="0 0 0 0 0 0 0 0 0 0 0 0 0 0 0 0 0 0 127 0" result="hardAlpha"/>
<feOffset/>
<feGaussianBlur stdDeviation="0.671034"/>
<feColorMatrix type="matrix" values="0 0 0 0 1 0 0 0 0 1 0 0 0 0 1 0 0 0 1 0"/>
<feBlend mode="normal" in2="effect4_dropShadow_5752_47425" result="effect5_dropShadow_5752_47425"/>
<feColorMatrix in="SourceAlpha" type="matrix" values="0 0 0 0 0 0 0 0 0 0 0 0 0 0 0 0 0 0 127 0" result="hardAlpha"/>
<feOffset/>
<feGaussianBlur stdDeviation="1.17431"/>
<feColorMatrix type="matrix" values="0 0 0 0 1 0 0 0 0 1 0 0 0 0 1 0 0 0 1 0"/>
<feBlend mode="normal" in2="effect5_dropShadow_5752_47425" result="effect6_dropShadow_5752_47425"/>
<feBlend mode="normal" in="SourceGraphic" in2="effect6_dropShadow_5752_47425" result="shape"/>
</filter>
<filter id="filter4_dddddd_5752_47425" x="1290.78" y="72.694" width="46.3019" height="35.0651" filterUnits="userSpaceOnUse" color-interpolation-filters="sRGB">
<feFlood flood-opacity="0" result="BackgroundImageFix"/>
<feColorMatrix in="SourceAlpha" type="matrix" values="0 0 0 0 0 0 0 0 0 0 0 0 0 0 0 0 0 0 127 0" result="hardAlpha"/>
<feOffset/>
<feGaussianBlur stdDeviation="0.02243"/>
<feColorMatrix type="matrix" values="0 0 0 0 0.94902 0 0 0 0 0.94902 0 0 0 0 0.941176 0 0 0 1 0"/>
<feBlend mode="normal" in2="BackgroundImageFix" result="effect1_dropShadow_5752_47425"/>
<feColorMatrix in="SourceAlpha" type="matrix" values="0 0 0 0 0 0 0 0 0 0 0 0 0 0 0 0 0 0 127 0" result="hardAlpha"/>
<feOffset/>
<feGaussianBlur stdDeviation="0.0448599"/>
<feColorMatrix type="matrix" values="0 0 0 0 0.94902 0 0 0 0 0.94902 0 0 0 0 0.941176 0 0 0 1 0"/>
<feBlend mode="normal" in2="effect1_dropShadow_5752_47425" result="effect2_dropShadow_5752_47425"/>
<feColorMatrix in="SourceAlpha" type="matrix" values="0 0 0 0 0 0 0 0 0 0 0 0 0 0 0 0 0 0 127 0" result="hardAlpha"/>
<feOffset/>
<feGaussianBlur stdDeviation="0.15701"/>
<feColorMatrix type="matrix" values="0 0 0 0 0.94902 0 0 0 0 0.94902 0 0 0 0 0.941176 0 0 0 1 0"/>
<feBlend mode="normal" in2="effect2_dropShadow_5752_47425" result="effect3_dropShadow_5752_47425"/>
<feColorMatrix in="SourceAlpha" type="matrix" values="0 0 0 0 0 0 0 0 0 0 0 0 0 0 0 0 0 0 127 0" result="hardAlpha"/>
<feOffset/>
<feGaussianBlur stdDeviation="0.31402"/>
<feColorMatrix type="matrix" values="0 0 0 0 0.94902 0 0 0 0 0.94902 0 0 0 0 0.941176 0 0 0 1 0"/>
<feBlend mode="normal" in2="effect3_dropShadow_5752_47425" result="effect4_dropShadow_5752_47425"/>
<feColorMatrix in="SourceAlpha" type="matrix" values="0 0 0 0 0 0 0 0 0 0 0 0 0 0 0 0 0 0 127 0" result="hardAlpha"/>
<feOffset/>
<feGaussianBlur stdDeviation="0.538319"/>
<feColorMatrix type="matrix" values="0 0 0 0 0.94902 0 0 0 0 0.94902 0 0 0 0 0.941176 0 0 0 1 0"/>
<feBlend mode="normal" in2="effect4_dropShadow_5752_47425" result="effect5_dropShadow_5752_47425"/>
<feColorMatrix in="SourceAlpha" type="matrix" values="0 0 0 0 0 0 0 0 0 0 0 0 0 0 0 0 0 0 127 0" result="hardAlpha"/>
<feOffset/>
<feGaussianBlur stdDeviation="0.942059"/>
<feColorMatrix type="matrix" values="0 0 0 0 0.94902 0 0 0 0 0.94902 0 0 0 0 0.941176 0 0 0 1 0"/>
<feBlend mode="normal" in2="effect5_dropShadow_5752_47425" result="effect6_dropShadow_5752_47425"/>
<feBlend mode="normal" in="SourceGraphic" in2="effect6_dropShadow_5752_47425" result="shape"/>
</filter>
<filter id="filter5_dddddd_5752_47425" x="1075.75" y="60.7483" width="55.3354" height="55.3354" filterUnits="userSpaceOnUse" color-interpolation-filters="sRGB">
<feFlood flood-opacity="0" result="BackgroundImageFix"/>
<feColorMatrix in="SourceAlpha" type="matrix" values="0 0 0 0 0 0 0 0 0 0 0 0 0 0 0 0 0 0 127 0" result="hardAlpha"/>
<feOffset/>
<feGaussianBlur stdDeviation="0.026806"/>
<feColorMatrix type="matrix" values="0 0 0 0 1 0 0 0 0 1 0 0 0 0 1 0 0 0 1 0"/>
<feBlend mode="normal" in2="BackgroundImageFix" result="effect1_dropShadow_5752_47425"/>
<feColorMatrix in="SourceAlpha" type="matrix" values="0 0 0 0 0 0 0 0 0 0 0 0 0 0 0 0 0 0 127 0" result="hardAlpha"/>
<feOffset/>
<feGaussianBlur stdDeviation="0.0536121"/>
<feColorMatrix type="matrix" values="0 0 0 0 1 0 0 0 0 1 0 0 0 0 1 0 0 0 1 0"/>
<feBlend mode="normal" in2="effect1_dropShadow_5752_47425" result="effect2_dropShadow_5752_47425"/>
<feColorMatrix in="SourceAlpha" type="matrix" values="0 0 0 0 0 0 0 0 0 0 0 0 0 0 0 0 0 0 127 0" result="hardAlpha"/>
<feOffset/>
<feGaussianBlur stdDeviation="0.187642"/>
<feColorMatrix type="matrix" values="0 0 0 0 1 0 0 0 0 1 0 0 0 0 1 0 0 0 1 0"/>
<feBlend mode="normal" in2="effect2_dropShadow_5752_47425" result="effect3_dropShadow_5752_47425"/>
<feColorMatrix in="SourceAlpha" type="matrix" values="0 0 0 0 0 0 0 0 0 0 0 0 0 0 0 0 0 0 127 0" result="hardAlpha"/>
<feOffset/>
<feGaussianBlur stdDeviation="0.375284"/>
<feColorMatrix type="matrix" values="0 0 0 0 1 0 0 0 0 1 0 0 0 0 1 0 0 0 1 0"/>
<feBlend mode="normal" in2="effect3_dropShadow_5752_47425" result="effect4_dropShadow_5752_47425"/>
<feColorMatrix in="SourceAlpha" type="matrix" values="0 0 0 0 0 0 0 0 0 0 0 0 0 0 0 0 0 0 127 0" result="hardAlpha"/>
<feOffset/>
<feGaussianBlur stdDeviation="0.643345"/>
<feColorMatrix type="matrix" values="0 0 0 0 1 0 0 0 0 1 0 0 0 0 1 0 0 0 1 0"/>
<feBlend mode="normal" in2="effect4_dropShadow_5752_47425" result="effect5_dropShadow_5752_47425"/>
<feColorMatrix in="SourceAlpha" type="matrix" values="0 0 0 0 0 0 0 0 0 0 0 0 0 0 0 0 0 0 127 0" result="hardAlpha"/>
<feOffset/>
<feGaussianBlur stdDeviation="1.12585"/>
<feColorMatrix type="matrix" values="0 0 0 0 1 0 0 0 0 1 0 0 0 0 1 0 0 0 1 0"/>
<feBlend mode="normal" in2="effect5_dropShadow_5752_47425" result="effect6_dropShadow_5752_47425"/>
<feBlend mode="normal" in="SourceGraphic" in2="effect6_dropShadow_5752_47425" result="shape"/>
</filter>
<filter id="filter6_dddddd_5752_47425" x="449.486" y="62.121" width="49.6271" height="49.3615" filterUnits="userSpaceOnUse" color-interpolation-filters="sRGB">
<feFlood flood-opacity="0" result="BackgroundImageFix"/>
<feColorMatrix in="SourceAlpha" type="matrix" values="0 0 0 0 0 0 0 0 0 0 0 0 0 0 0 0 0 0 127 0" result="hardAlpha"/>
<feOffset/>
<feGaussianBlur stdDeviation="0.0180209"/>
<feColorMatrix type="matrix" values="0 0 0 0 0.94902 0 0 0 0 0.94902 0 0 0 0 0.941176 0 0 0 1 0"/>
<feBlend mode="normal" in2="BackgroundImageFix" result="effect1_dropShadow_5752_47425"/>
<feColorMatrix in="SourceAlpha" type="matrix" values="0 0 0 0 0 0 0 0 0 0 0 0 0 0 0 0 0 0 127 0" result="hardAlpha"/>
<feOffset/>
<feGaussianBlur stdDeviation="0.0360419"/>
<feColorMatrix type="matrix" values="0 0 0 0 0.94902 0 0 0 0 0.94902 0 0 0 0 0.941176 0 0 0 1 0"/>
<feBlend mode="normal" in2="effect1_dropShadow_5752_47425" result="effect2_dropShadow_5752_47425"/>
<feColorMatrix in="SourceAlpha" type="matrix" values="0 0 0 0 0 0 0 0 0 0 0 0 0 0 0 0 0 0 127 0" result="hardAlpha"/>
<feOffset/>
<feGaussianBlur stdDeviation="0.126147"/>
<feColorMatrix type="matrix" values="0 0 0 0 0.94902 0 0 0 0 0.94902 0 0 0 0 0.941176 0 0 0 1 0"/>
<feBlend mode="normal" in2="effect2_dropShadow_5752_47425" result="effect3_dropShadow_5752_47425"/>
<feColorMatrix in="SourceAlpha" type="matrix" values="0 0 0 0 0 0 0 0 0 0 0 0 0 0 0 0 0 0 127 0" result="hardAlpha"/>
<feOffset/>
<feGaussianBlur stdDeviation="0.252293"/>
<feColorMatrix type="matrix" values="0 0 0 0 0.94902 0 0 0 0 0.94902 0 0 0 0 0.941176 0 0 0 1 0"/>
<feBlend mode="normal" in2="effect3_dropShadow_5752_47425" result="effect4_dropShadow_5752_47425"/>
<feColorMatrix in="SourceAlpha" type="matrix" values="0 0 0 0 0 0 0 0 0 0 0 0 0 0 0 0 0 0 127 0" result="hardAlpha"/>
<feOffset/>
<feGaussianBlur stdDeviation="0.432503"/>
<feColorMatrix type="matrix" values="0 0 0 0 0.94902 0 0 0 0 0.94902 0 0 0 0 0.941176 0 0 0 1 0"/>
<feBlend mode="normal" in2="effect4_dropShadow_5752_47425" result="effect5_dropShadow_5752_47425"/>
<feColorMatrix in="SourceAlpha" type="matrix" values="0 0 0 0 0 0 0 0 0 0 0 0 0 0 0 0 0 0 127 0" result="hardAlpha"/>
<feOffset/>
<feGaussianBlur stdDeviation="0.75688"/>
<feColorMatrix type="matrix" values="0 0 0 0 0.94902 0 0 0 0 0.94902 0 0 0 0 0.941176 0 0 0 1 0"/>
<feBlend mode="normal" in2="effect5_dropShadow_5752_47425" result="effect6_dropShadow_5752_47425"/>
<feBlend mode="normal" in="SourceGraphic" in2="effect6_dropShadow_5752_47425" result="shape"/>
</filter>
<filter id="filter7_dddddd_5752_47425" x="31.1651" y="63.1651" width="52.2693" height="52.2693" filterUnits="userSpaceOnUse" color-interpolation-filters="sRGB">
<feFlood flood-opacity="0" result="BackgroundImageFix"/>
<feColorMatrix in="SourceAlpha" type="matrix" values="0 0 0 0 0 0 0 0 0 0 0 0 0 0 0 0 0 0 127 0" result="hardAlpha"/>
<feOffset/>
<feGaussianBlur stdDeviation="0.0337483"/>
<feColorMatrix type="matrix" values="0 0 0 0 1 0 0 0 0 1 0 0 0 0 1 0 0 0 1 0"/>
<feBlend mode="normal" in2="BackgroundImageFix" result="effect1_dropShadow_5752_47425"/>
<feColorMatrix in="SourceAlpha" type="matrix" values="0 0 0 0 0 0 0 0 0 0 0 0 0 0 0 0 0 0 127 0" result="hardAlpha"/>
<feOffset/>
<feGaussianBlur stdDeviation="0.0674966"/>
<feColorMatrix type="matrix" values="0 0 0 0 1 0 0 0 0 1 0 0 0 0 1 0 0 0 1 0"/>
<feBlend mode="normal" in2="effect1_dropShadow_5752_47425" result="effect2_dropShadow_5752_47425"/>
<feColorMatrix in="SourceAlpha" type="matrix" values="0 0 0 0 0 0 0 0 0 0 0 0 0 0 0 0 0 0 127 0" result="hardAlpha"/>
<feOffset/>
<feGaussianBlur stdDeviation="0.236238"/>
<feColorMatrix type="matrix" values="0 0 0 0 1 0 0 0 0 1 0 0 0 0 1 0 0 0 1 0"/>
<feBlend mode="normal" in2="effect2_dropShadow_5752_47425" result="effect3_dropShadow_5752_47425"/>
<feColorMatrix in="SourceAlpha" type="matrix" values="0 0 0 0 0 0 0 0 0 0 0 0 0 0 0 0 0 0 127 0" result="hardAlpha"/>
<feOffset/>
<feGaussianBlur stdDeviation="0.472476"/>
<feColorMatrix type="matrix" values="0 0 0 0 1 0 0 0 0 1 0 0 0 0 1 0 0 0 1 0"/>
<feBlend mode="normal" in2="effect3_dropShadow_5752_47425" result="effect4_dropShadow_5752_47425"/>
<feColorMatrix in="SourceAlpha" type="matrix" values="0 0 0 0 0 0 0 0 0 0 0 0 0 0 0 0 0 0 127 0" result="hardAlpha"/>
<feOffset/>
<feGaussianBlur stdDeviation="0.80996"/>
<feColorMatrix type="matrix" values="0 0 0 0 1 0 0 0 0 1 0 0 0 0 1 0 0 0 1 0"/>
<feBlend mode="normal" in2="effect4_dropShadow_5752_47425" result="effect5_dropShadow_5752_47425"/>
<feColorMatrix in="SourceAlpha" type="matrix" values="0 0 0 0 0 0 0 0 0 0 0 0 0 0 0 0 0 0 127 0" result="hardAlpha"/>
<feOffset/>
<feGaussianBlur stdDeviation="1.41743"/>
<feColorMatrix type="matrix" values="0 0 0 0 1 0 0 0 0 1 0 0 0 0 1 0 0 0 1 0"/>
<feBlend mode="normal" in2="effect5_dropShadow_5752_47425" result="effect6_dropShadow_5752_47425"/>
<feBlend mode="normal" in="SourceGraphic" in2="effect6_dropShadow_5752_47425" result="shape"/>
</filter>
<filter id="filter8_dddddd_5752_47425" x="238.847" y="63.3638" width="51.2885" height="51.288" filterUnits="userSpaceOnUse" color-interpolation-filters="sRGB">
<feFlood flood-opacity="0" result="BackgroundImageFix"/>
<feColorMatrix in="SourceAlpha" type="matrix" values="0 0 0 0 0 0 0 0 0 0 0 0 0 0 0 0 0 0 127 0" result="hardAlpha"/>
<feOffset/>
<feGaussianBlur stdDeviation="0.033592"/>
<feColorMatrix type="matrix" values="0 0 0 0 1 0 0 0 0 1 0 0 0 0 1 0 0 0 1 0"/>
<feBlend mode="normal" in2="BackgroundImageFix" result="effect1_dropShadow_5752_47425"/>
<feColorMatrix in="SourceAlpha" type="matrix" values="0 0 0 0 0 0 0 0 0 0 0 0 0 0 0 0 0 0 127 0" result="hardAlpha"/>
<feOffset/>
<feGaussianBlur stdDeviation="0.067184"/>
<feColorMatrix type="matrix" values="0 0 0 0 1 0 0 0 0 1 0 0 0 0 1 0 0 0 1 0"/>
<feBlend mode="normal" in2="effect1_dropShadow_5752_47425" result="effect2_dropShadow_5752_47425"/>
<feColorMatrix in="SourceAlpha" type="matrix" values="0 0 0 0 0 0 0 0 0 0 0 0 0 0 0 0 0 0 127 0" result="hardAlpha"/>
<feOffset/>
<feGaussianBlur stdDeviation="0.235144"/>
<feColorMatrix type="matrix" values="0 0 0 0 1 0 0 0 0 1 0 0 0 0 1 0 0 0 1 0"/>
<feBlend mode="normal" in2="effect2_dropShadow_5752_47425" result="effect3_dropShadow_5752_47425"/>
<feColorMatrix in="SourceAlpha" type="matrix" values="0 0 0 0 0 0 0 0 0 0 0 0 0 0 0 0 0 0 127 0" result="hardAlpha"/>
<feOffset/>
<feGaussianBlur stdDeviation="0.470288"/>
<feColorMatrix type="matrix" values="0 0 0 0 1 0 0 0 0 1 0 0 0 0 1 0 0 0 1 0"/>
<feBlend mode="normal" in2="effect3_dropShadow_5752_47425" result="effect4_dropShadow_5752_47425"/>
<feColorMatrix in="SourceAlpha" type="matrix" values="0 0 0 0 0 0 0 0 0 0 0 0 0 0 0 0 0 0 127 0" result="hardAlpha"/>
<feOffset/>
<feGaussianBlur stdDeviation="0.806209"/>
<feColorMatrix type="matrix" values="0 0 0 0 1 0 0 0 0 1 0 0 0 0 1 0 0 0 1 0"/>
<feBlend mode="normal" in2="effect4_dropShadow_5752_47425" result="effect5_dropShadow_5752_47425"/>
<feColorMatrix in="SourceAlpha" type="matrix" values="0 0 0 0 0 0 0 0 0 0 0 0 0 0 0 0 0 0 127 0" result="hardAlpha"/>
<feOffset/>
<feGaussianBlur stdDeviation="1.41087"/>
<feColorMatrix type="matrix" values="0 0 0 0 1 0 0 0 0 1 0 0 0 0 1 0 0 0 1 0"/>
<feBlend mode="normal" in2="effect5_dropShadow_5752_47425" result="effect6_dropShadow_5752_47425"/>
<feBlend mode="normal" in="SourceGraphic" in2="effect6_dropShadow_5752_47425" result="shape"/>
</filter>
<linearGradient id="paint0_linear_5752_47425" x1="57.5" y1="0" x2="57.5" y2="174" gradientUnits="userSpaceOnUse">
<stop/>
<stop offset="0.666571" stop-color="#2B5CDF" stop-opacity="0.57"/>
<stop offset="0.798077" stop-color="#B3D6F1" stop-opacity="0.52"/>
<stop offset="1" stop-color="#EEB3C7" stop-opacity="0.85"/>
</linearGradient>
<linearGradient id="paint1_linear_5752_47425" x1="57.5" y1="0" x2="57.5" y2="174" gradientUnits="userSpaceOnUse">
<stop stop-color="#FAF9F8"/>
<stop offset="1" stop-color="white"/>
</linearGradient>
<linearGradient id="paint2_linear_5752_47425" x1="266.5" y1="0" x2="266.5" y2="174" gradientUnits="userSpaceOnUse">
<stop/>
<stop offset="0.666571" stop-color="#2B5CDF" stop-opacity="0.57"/>
<stop offset="0.798077" stop-color="#B3D6F1" stop-opacity="0.52"/>
<stop offset="1" stop-color="#EEB3C7" stop-opacity="0.85"/>
</linearGradient>
<linearGradient id="paint3_linear_5752_47425" x1="266.5" y1="0" x2="266.5" y2="174" gradientUnits="userSpaceOnUse">
<stop stop-color="#FAF9F8"/>
<stop offset="1" stop-color="white"/>
</linearGradient>
<linearGradient id="paint4_linear_5752_47425" x1="475.5" y1="0" x2="475.5" y2="174" gradientUnits="userSpaceOnUse">
<stop/>
<stop offset="0.666571" stop-color="#2B5CDF" stop-opacity="0.57"/>
<stop offset="0.798077" stop-color="#B3D6F1" stop-opacity="0.52"/>
<stop offset="1" stop-color="#EEB3C7" stop-opacity="0.85"/>
</linearGradient>
<linearGradient id="paint5_linear_5752_47425" x1="475.5" y1="0" x2="475.5" y2="174" gradientUnits="userSpaceOnUse">
<stop stop-color="#FAF9F8"/>
<stop offset="1" stop-color="white"/>
</linearGradient>
<linearGradient id="paint6_linear_5752_47425" x1="684.5" y1="0" x2="684.5" y2="174" gradientUnits="userSpaceOnUse">
<stop/>
<stop offset="0.666571" stop-color="#2B5CDF" stop-opacity="0.57"/>
<stop offset="0.798077" stop-color="#B3D6F1" stop-opacity="0.52"/>
<stop offset="1" stop-color="#EEB3C7" stop-opacity="0.85"/>
</linearGradient>
<linearGradient id="paint7_linear_5752_47425" x1="684.5" y1="0" x2="684.5" y2="174" gradientUnits="userSpaceOnUse">
<stop stop-color="#FAF9F8"/>
<stop offset="1" stop-color="white"/>
</linearGradient>
<linearGradient id="paint8_linear_5752_47425" x1="893.5" y1="0" x2="893.5" y2="174" gradientUnits="userSpaceOnUse">
<stop/>
<stop offset="0.666571" stop-color="#2B5CDF" stop-opacity="0.57"/>
<stop offset="0.798077" stop-color="#B3D6F1" stop-opacity="0.52"/>
<stop offset="1" stop-color="#EEB3C7" stop-opacity="0.85"/>
</linearGradient>
<linearGradient id="paint9_linear_5752_47425" x1="893.5" y1="0" x2="893.5" y2="174" gradientUnits="userSpaceOnUse">
<stop stop-color="#FAF9F8"/>
<stop offset="1" stop-color="white"/>
</linearGradient>
<linearGradient id="paint10_linear_5752_47425" x1="1102.5" y1="0" x2="1102.5" y2="174" gradientUnits="userSpaceOnUse">
<stop/>
<stop offset="0.666571" stop-color="#2B5CDF" stop-opacity="0.57"/>
<stop offset="0.798077" stop-color="#B3D6F1" stop-opacity="0.52"/>
<stop offset="1" stop-color="#EEB3C7" stop-opacity="0.85"/>
</linearGradient>
<linearGradient id="paint11_linear_5752_47425" x1="1102.5" y1="0" x2="1102.5" y2="174" gradientUnits="userSpaceOnUse">
<stop stop-color="#FAF9F8"/>
<stop offset="1" stop-color="white"/>
</linearGradient>
<linearGradient id="paint12_linear_5752_47425" x1="1311.5" y1="0" x2="1311.5" y2="174" gradientUnits="userSpaceOnUse">
<stop/>
<stop offset="0.666571" stop-color="#2B5CDF" stop-opacity="0.57"/>
<stop offset="0.798077" stop-color="#B3D6F1" stop-opacity="0.52"/>
<stop offset="1" stop-color="#EEB3C7" stop-opacity="0.85"/>
</linearGradient>
<linearGradient id="paint13_linear_5752_47425" x1="1311.5" y1="0" x2="1311.5" y2="174" gradientUnits="userSpaceOnUse">
<stop stop-color="#FAF9F8"/>
<stop offset="1" stop-color="white"/>
</linearGradient>
<clipPath id="clip0_5752_47425">
<rect x="627" width="115" height="174" rx="55" fill="white"/>
</clipPath>
<clipPath id="clip1_5752_47425">
<rect width="46.5996" height="46.5996" fill="white" transform="translate(871 65)"/>
</clipPath>
<clipPath id="clip2_5752_47425">
<rect width="51.8696" height="51.8696" fill="white" transform="translate(869.402 64.959)"/>
</clipPath>
<clipPath id="clip3_5752_47425">
<rect width="46.5996" height="46.5996" fill="white" transform="translate(34 66)"/>
</clipPath>
<clipPath id="clip4_5752_47425">
<rect width="45.6452" height="45.6452" fill="white" transform="translate(34.4771 65.959)"/>
</clipPath>
</defs>
</svg>
