<svg width="46" height="46" viewBox="0 0 46 46" fill="none" xmlns="http://www.w3.org/2000/svg">
<g clip-path="url(#clip0_5752_47369)">
<path d="M13.1178 7.56445H13.0721L13.0132 12.5379H13.055C16.3168 12.5379 18.8482 15.1187 24.3522 24.417L24.685 24.9819L24.7079 25.0199L27.7889 20.3832L27.7661 20.347C27.0928 19.2447 26.3966 18.1566 25.6778 17.0834C24.9702 16.0243 24.2248 14.9909 23.4431 13.9852C19.8048 9.33701 16.7618 7.56445 13.1178 7.56445Z" fill="#F2F2F0"/>
<path d="M13.0711 7.56445C9.4138 7.58347 6.1749 9.95702 3.84128 13.5934C3.83492 13.6042 3.82858 13.615 3.82227 13.6258L8.10911 15.967L8.13003 15.9346C9.49558 13.8749 11.1921 12.5607 13.0141 12.5398H13.054L13.1149 7.56445H13.0711Z" fill="#F2F2F0"/>
<path d="M3.84002 13.5957L3.81909 13.628C2.28237 16.0244 1.13744 18.9685 0.521228 22.1428L0.511719 22.1846L5.33109 23.3257L5.3387 23.2839C5.85221 20.4938 6.83358 17.9054 8.10784 15.9712L8.12876 15.9388L3.84002 13.5957Z" fill="#F2F2F0"/>
<path d="M5.33859 23.2837L0.521116 22.1426L0.511607 22.1844C0.174973 23.9303 0.00380377 25.7048 0 27.4831V27.5268L4.94109 27.97V27.9262C4.92312 26.37 5.05688 24.8158 5.34049 23.2856L5.33859 23.2837Z" fill="#F2F2F0"/>
<path d="M5.09158 29.5058C5.00297 28.9948 4.95275 28.478 4.94133 27.9595V27.9177L0.000234132 27.4727V27.5183C-0.00531098 28.572 0.0876518 29.6238 0.277909 30.6602L5.09918 29.5476C5.09661 29.5337 5.09408 29.5197 5.09158 29.5058Z" fill="#F2F2F0"/>
<path d="M6.2196 32.0832C5.67947 31.4936 5.29909 30.6454 5.09939 29.5575L5.09178 29.5176L0.270508 30.6302L0.278115 30.6701C0.643277 32.591 1.35839 34.1886 2.3816 35.4001L2.40823 35.4324L6.24623 32.1136C6.23666 32.1036 6.22906 32.0934 6.2196 32.0832Z" fill="#F2F2F0"/>
<path d="M20.502 18.3223C17.5959 22.7917 15.8348 25.597 15.8348 25.597C11.9645 31.683 10.6255 33.0466 8.47259 33.0466C8.0492 33.0577 7.62842 32.9771 7.2391 32.8103C6.84977 32.6435 6.50109 32.3946 6.21696 32.0805L2.38086 35.3974L2.40749 35.4297C3.82249 37.0824 5.81566 37.9992 8.28431 37.9992C12.0177 37.9992 14.7013 36.2342 19.475 27.8621L22.8337 21.9092C22.0886 20.6926 21.3123 19.4965 20.502 18.3223Z" fill="#F2F2F0"/>
<path d="M25.6795 11.2695L25.6491 11.2999C24.8883 12.1177 24.1542 13.0268 23.4429 13.993C24.1618 14.9116 24.9035 15.9405 25.6776 17.093C26.5905 15.6799 27.4425 14.535 28.2775 13.6563L28.3079 13.6259L25.6795 11.2695Z" fill="#F2F2F0"/>
<path d="M39.7837 10.8224C37.7582 8.76835 35.3428 7.56445 32.7601 7.56445C30.0366 7.56445 27.7448 9.06124 25.6794 11.2617L25.6489 11.2921L28.2773 13.6505L28.3078 13.6181C29.6676 12.1974 30.9856 11.488 32.4463 11.488C34.0172 11.488 35.4893 12.2298 36.7635 13.5326L36.7921 13.563L39.8142 10.8528L39.7837 10.8224Z" fill="#F2F2F0"/>
<path d="M45.6417 26.8248C45.5276 20.231 43.2263 14.3371 39.8143 10.8566L39.7839 10.8262L36.7637 13.5345L36.7922 13.5649C39.3597 16.2123 41.1228 21.1344 41.2825 26.8229V26.8667H45.6417V26.8248Z" fill="#F2F2F0"/>
<path d="M45.6418 26.8719V26.8281H41.2826V26.87C41.2903 27.1362 41.2941 27.4063 41.2941 27.6764C41.2941 29.2264 41.0639 30.4797 40.5942 31.385L40.5732 31.4269L43.8217 34.816L43.8464 34.778C45.0256 32.9522 45.6456 30.417 45.6456 27.3416C45.6456 27.1838 45.6456 27.0278 45.6418 26.8719Z" fill="#F2F2F0"/>
<path d="M40.594 31.3809L40.5731 31.4189C40.1661 32.1835 39.5861 32.6932 38.8291 32.9157L40.3088 37.5981C40.594 37.5017 40.8723 37.3861 41.1418 37.252C42.195 36.7196 43.0906 35.921 43.7398 34.9355L43.8234 34.8119L43.8463 34.7738L40.594 31.3809Z" fill="#F2F2F0"/>
<path d="M37.8852 33.0417C37.3869 33.0417 36.9495 32.9675 36.5197 32.7754L35.002 37.5719C35.8559 37.8629 36.765 37.9942 37.7787 37.9942C38.7144 37.9942 39.5722 37.8553 40.3501 37.5853L38.8666 32.9028C38.549 32.9979 38.2199 33.0455 37.8852 33.0417Z" fill="#F2F2F0"/>
<path d="M34.8481 31.4054L34.8214 31.373L31.3296 35.0133L31.36 35.0456C32.5715 36.3427 33.7298 37.1472 35.044 37.5884L36.5598 32.7957C36.0063 32.5579 35.47 32.1243 34.8481 31.4054Z" fill="#F2F2F0"/>
<path d="M34.8216 31.371C33.7756 30.15 32.4785 28.115 30.4416 24.8285L27.7865 20.3857L27.7656 20.3477L24.6846 24.9844L24.7074 25.0225L26.5884 28.1948C28.4123 31.2569 29.8976 33.4707 31.3298 35.0131L31.3602 35.0435L34.8482 31.4033C34.8393 31.3926 34.8304 31.3818 34.8216 31.371Z" fill="#F2F2F0"/>
</g>
<defs>
<clipPath id="clip0_5752_47369">
<rect width="45.6452" height="45.6452" fill="white" transform="translate(0 -0.0410156)"/>
</clipPath>
</defs>
</svg>
