<svg width="52" height="52" viewBox="0 0 52 52" fill="none" xmlns="http://www.w3.org/2000/svg">
<g filter="url(#filter0_dddddd_5752_47413)">
<path fill-rule="evenodd" clip-rule="evenodd" d="M45.7739 21.3228C46.3028 19.7548 46.4861 18.091 46.3114 16.4454C46.1366 14.7999 45.6079 13.2116 44.7615 11.7897C42.1839 7.36305 37.0054 5.08407 31.9476 6.15578C30.8273 4.91547 29.4572 3.92639 27.9273 3.2536C26.3973 2.58081 24.7423 2.23956 23.071 2.2523C17.901 2.24171 13.3134 5.52674 11.7227 10.3812C10.0878 10.7085 8.54105 11.3797 7.18522 12.3503C5.82939 13.3209 4.69544 14.5687 3.85858 16.0109C2.59366 18.1591 2.05306 20.6571 2.3166 23.1361C2.58013 25.6151 3.63384 27.9437 5.32213 29.7779C4.79265 31.3461 4.60879 33.0103 4.78318 34.6562C4.95757 36.3021 5.48608 37.8908 6.33242 39.3132C8.91003 43.7398 14.0886 46.0167 19.1464 44.9471C20.2662 46.1872 21.636 47.176 23.1657 47.8484C24.6953 48.5209 26.35 48.8617 28.0208 48.8485C33.1951 48.8612 37.7848 45.574 39.3754 40.7153C41.0116 40.3881 42.5593 39.7165 43.9159 38.7451C45.2726 37.7738 46.407 36.5249 47.2438 35.0814C48.5064 32.9333 49.0452 30.4364 48.7809 27.9588C48.5167 25.4813 47.4633 23.1542 45.7761 21.3207L45.7739 21.3228ZM28.0229 45.8028C25.957 45.8077 23.9538 45.0933 22.3573 43.7822C22.4293 43.7441 22.5542 43.6763 22.6368 43.6255L32.0408 38.2669C32.2755 38.1359 32.4708 37.9444 32.6064 37.7124C32.742 37.4803 32.8129 37.2161 32.8117 36.9474V23.8666L36.7872 26.1307C36.8296 26.1519 36.8571 26.1921 36.8635 26.2366V37.0702C36.8571 41.8866 32.9028 45.7922 28.0229 45.8028ZM9.00958 37.7925C7.97308 36.0293 7.59911 33.9545 7.95481 31.9404C8.02259 31.9828 8.14543 32.0569 8.23227 32.1056L17.6362 37.4642C18.1128 37.7395 18.7037 37.7395 19.1824 37.4642L30.662 30.9238V35.4521C30.6629 35.4753 30.6582 35.4984 30.6482 35.5195C30.6383 35.5405 30.6234 35.5588 30.6048 35.5728L21.0992 40.9864C16.8653 43.3925 11.458 41.9607 9.01169 37.7882L9.00958 37.7925ZM6.53363 17.5358C7.57418 15.7609 9.20439 14.4073 11.1403 13.7107L11.1361 14.0305V24.7477C11.1348 25.0167 11.2056 25.2812 11.3412 25.5137C11.4768 25.7461 11.6721 25.938 11.907 26.0693L23.3866 32.6076L19.4132 34.8738C19.3936 34.8865 19.3711 34.894 19.3478 34.8959C19.3246 34.8977 19.3012 34.8938 19.2798 34.8844L9.77206 29.4645C5.54663 27.0499 4.09792 21.7168 6.53151 17.5401L6.53363 17.5358ZM39.1869 25.0336L27.7073 18.4932L31.6807 16.2311C31.7002 16.2182 31.7226 16.2103 31.7458 16.208C31.7691 16.2058 31.7926 16.2094 31.8142 16.2184L41.3219 21.6342C45.5537 24.0487 47.0045 29.3903 44.5603 33.5649C43.5189 35.3387 41.8901 36.6925 39.9558 37.3922V26.3552C39.9571 26.0867 39.8865 25.8226 39.7513 25.5906C39.6161 25.3586 39.4212 25.167 39.1869 25.0357V25.0336ZM43.1413 19.1603C43.0488 19.1041 42.9556 19.049 42.8617 18.9951L33.4577 13.6366C33.2229 13.5015 32.9567 13.4304 32.6857 13.4304C32.4148 13.4304 32.1486 13.5015 31.9137 13.6366L20.4341 20.177V15.6487C20.4332 15.6254 20.4379 15.6023 20.4479 15.5813C20.4578 15.5603 20.4727 15.542 20.4913 15.528L29.9948 10.1165C34.2308 7.70828 39.6423 9.14217 42.0823 13.321C43.1137 15.0853 43.4907 17.1525 43.1413 19.1603ZM18.2737 27.23L14.2982 24.9679C14.2775 24.9578 14.2596 24.9425 14.2463 24.9237C14.233 24.9048 14.2246 24.8829 14.222 24.8599V14.0263C14.2241 9.2036 18.189 5.29587 23.0774 5.30011C25.1446 5.30011 27.144 6.016 28.7346 7.32069C28.6626 7.35881 28.5397 7.42659 28.4571 7.4753L19.0532 12.8339C18.8181 12.9646 18.6223 13.1559 18.4864 13.388C18.3504 13.6201 18.2792 13.8844 18.2801 14.1534L18.2737 27.2278V27.23ZM20.4341 22.6381L25.547 19.7259L30.6598 22.6381V28.4626L25.547 31.3749L20.432 28.4626V22.6381H20.4341Z" fill="#F2F2F0"/>
</g>
<defs>
<filter id="filter0_dddddd_5752_47413" x="-2.12085" y="-2.11499" width="55.3354" height="55.3354" filterUnits="userSpaceOnUse" color-interpolation-filters="sRGB">
<feFlood flood-opacity="0" result="BackgroundImageFix"/>
<feColorMatrix in="SourceAlpha" type="matrix" values="0 0 0 0 0 0 0 0 0 0 0 0 0 0 0 0 0 0 127 0" result="hardAlpha"/>
<feOffset/>
<feGaussianBlur stdDeviation="0.026806"/>
<feColorMatrix type="matrix" values="0 0 0 0 1 0 0 0 0 1 0 0 0 0 1 0 0 0 1 0"/>
<feBlend mode="normal" in2="BackgroundImageFix" result="effect1_dropShadow_5752_47413"/>
<feColorMatrix in="SourceAlpha" type="matrix" values="0 0 0 0 0 0 0 0 0 0 0 0 0 0 0 0 0 0 127 0" result="hardAlpha"/>
<feOffset/>
<feGaussianBlur stdDeviation="0.0536121"/>
<feColorMatrix type="matrix" values="0 0 0 0 1 0 0 0 0 1 0 0 0 0 1 0 0 0 1 0"/>
<feBlend mode="normal" in2="effect1_dropShadow_5752_47413" result="effect2_dropShadow_5752_47413"/>
<feColorMatrix in="SourceAlpha" type="matrix" values="0 0 0 0 0 0 0 0 0 0 0 0 0 0 0 0 0 0 127 0" result="hardAlpha"/>
<feOffset/>
<feGaussianBlur stdDeviation="0.187642"/>
<feColorMatrix type="matrix" values="0 0 0 0 1 0 0 0 0 1 0 0 0 0 1 0 0 0 1 0"/>
<feBlend mode="normal" in2="effect2_dropShadow_5752_47413" result="effect3_dropShadow_5752_47413"/>
<feColorMatrix in="SourceAlpha" type="matrix" values="0 0 0 0 0 0 0 0 0 0 0 0 0 0 0 0 0 0 127 0" result="hardAlpha"/>
<feOffset/>
<feGaussianBlur stdDeviation="0.375284"/>
<feColorMatrix type="matrix" values="0 0 0 0 1 0 0 0 0 1 0 0 0 0 1 0 0 0 1 0"/>
<feBlend mode="normal" in2="effect3_dropShadow_5752_47413" result="effect4_dropShadow_5752_47413"/>
<feColorMatrix in="SourceAlpha" type="matrix" values="0 0 0 0 0 0 0 0 0 0 0 0 0 0 0 0 0 0 127 0" result="hardAlpha"/>
<feOffset/>
<feGaussianBlur stdDeviation="0.643345"/>
<feColorMatrix type="matrix" values="0 0 0 0 1 0 0 0 0 1 0 0 0 0 1 0 0 0 1 0"/>
<feBlend mode="normal" in2="effect4_dropShadow_5752_47413" result="effect5_dropShadow_5752_47413"/>
<feColorMatrix in="SourceAlpha" type="matrix" values="0 0 0 0 0 0 0 0 0 0 0 0 0 0 0 0 0 0 127 0" result="hardAlpha"/>
<feOffset/>
<feGaussianBlur stdDeviation="1.12585"/>
<feColorMatrix type="matrix" values="0 0 0 0 1 0 0 0 0 1 0 0 0 0 1 0 0 0 1 0"/>
<feBlend mode="normal" in2="effect5_dropShadow_5752_47413" result="effect6_dropShadow_5752_47413"/>
<feBlend mode="normal" in="SourceGraphic" in2="effect6_dropShadow_5752_47413" result="shape"/>
</filter>
</defs>
</svg>
