<svg width="53" height="53" viewBox="0 0 53 53" fill="none" xmlns="http://www.w3.org/2000/svg">
<g filter="url(#filter0_dddddd_5752_47386)">
<path d="M28.6392 7.73485C29.3867 9.04715 30.1303 10.3632 30.872 11.6813C30.902 11.734 30.9455 11.7778 30.9979 11.8082C31.0504 11.8386 31.11 11.8545 31.1706 11.8543H41.7299C42.0608 11.8543 42.3423 12.0635 42.5781 12.4762L45.3435 17.3641C45.7048 18.005 45.7999 18.2732 45.3891 18.956C44.8946 19.7738 44.4135 20.5992 43.9437 21.4284L43.2457 22.6798C43.0441 23.0526 42.8216 23.2124 43.1696 23.6536L48.2134 32.4727C48.5406 33.0451 48.4245 33.4122 48.1316 33.9371C47.3005 35.4301 46.4542 36.9116 45.5926 38.3875C45.2902 38.9048 44.9232 39.1007 44.2994 39.0912C42.8216 39.0608 41.3476 39.0722 39.8737 39.1216C39.8421 39.1233 39.8114 39.1328 39.7845 39.1495C39.7575 39.1661 39.7352 39.1892 39.7196 39.2167C38.019 42.2298 36.3041 45.2348 34.575 48.2317C34.2536 48.7889 33.8523 48.922 33.1962 48.9239C31.3 48.9297 29.3886 48.9316 27.4582 48.9278C27.2784 48.9273 27.102 48.8793 26.9467 48.7888C26.7915 48.6983 26.6628 48.5685 26.5738 48.4123L24.0348 43.9943C24.02 43.9654 23.9973 43.9413 23.9694 43.9248C23.9414 43.9083 23.9094 43.9 23.8769 43.9011H14.1431C13.601 43.9581 13.0913 43.8992 12.6121 43.7261L9.56334 38.4579C9.47318 38.3019 9.42539 38.125 9.42472 37.9449C9.42405 37.7647 9.47053 37.5875 9.55954 37.4309L11.8551 33.3989C11.8878 33.3418 11.905 33.2773 11.905 33.2115C11.905 33.1458 11.8878 33.0812 11.8551 33.0242C10.6593 30.9539 9.47065 28.8796 8.28908 26.8012L6.78659 24.1481C6.48229 23.5585 6.45756 23.2048 6.96727 22.3128C7.85165 20.7666 8.73032 19.2222 9.60518 17.6798C9.85623 17.2348 10.1834 17.0446 10.7159 17.0427C12.3572 17.0358 13.9985 17.0351 15.6399 17.0408C15.6813 17.0404 15.722 17.0292 15.7577 17.0082C15.7934 16.9871 15.823 16.957 15.8434 16.9209L21.18 7.61122C21.2609 7.4696 21.3777 7.35178 21.5186 7.26965C21.6595 7.18751 21.8196 7.14395 21.9826 7.14336C22.9792 7.14146 23.9853 7.14336 24.9933 7.13195L26.9275 7.08821C27.5761 7.0825 28.3045 7.14907 28.6392 7.73485ZM22.112 8.5013C22.0919 8.50129 22.0722 8.50656 22.0549 8.51657C22.0375 8.52659 22.0231 8.541 22.0131 8.55836L16.5623 18.0963C16.5361 18.1413 16.4986 18.1786 16.4536 18.2046C16.4086 18.2306 16.3575 18.2444 16.3055 18.2447H10.8547C10.7482 18.2447 10.7216 18.2922 10.7767 18.3854L21.8267 37.7009C21.8742 37.7808 21.8514 37.8188 21.762 37.8207L16.4463 37.8493C16.3685 37.8467 16.2917 37.866 16.2244 37.905C16.1572 37.944 16.1022 38.0012 16.0659 38.0699L13.5554 42.4632C13.4717 42.6116 13.5155 42.6877 13.6847 42.6877L24.5559 42.7029C24.6434 42.7029 24.708 42.7409 24.7537 42.8189L27.422 47.4861C27.5095 47.6402 27.597 47.6421 27.6864 47.4861L37.2072 30.8256L38.6964 28.1972C38.7055 28.181 38.7187 28.1675 38.7348 28.158C38.7508 28.1486 38.7691 28.1437 38.7877 28.1437C38.8063 28.1437 38.8246 28.1486 38.8406 28.158C38.8567 28.1675 38.8699 28.181 38.879 28.1972L41.5873 33.009C41.6076 33.045 41.6372 33.0749 41.673 33.0956C41.7087 33.1164 41.7494 33.1272 41.7908 33.1269L47.0457 33.0889C47.0591 33.089 47.0724 33.0855 47.0841 33.0788C47.0958 33.0722 47.1055 33.0625 47.1122 33.0508C47.1187 33.0392 47.1221 33.0261 47.1221 33.0128C47.1221 32.9995 47.1187 32.9864 47.1122 32.9747L41.5968 23.3018C41.5769 23.2694 41.5664 23.2322 41.5664 23.1943C41.5664 23.1564 41.5769 23.1192 41.5968 23.0869L42.154 22.1226L44.2841 18.3626C44.3298 18.2846 44.307 18.2447 44.2176 18.2447H22.1652C22.053 18.2447 22.0264 18.1952 22.0834 18.0982L24.8107 13.334C24.8312 13.3015 24.842 13.2639 24.842 13.2256C24.842 13.1872 24.8312 13.1496 24.8107 13.1172L22.2128 8.56026C22.2028 8.54227 22.1882 8.52729 22.1705 8.51691C22.1527 8.50654 22.1325 8.50114 22.112 8.5013ZM34.0748 23.7544C34.1623 23.7544 34.1851 23.7925 34.1395 23.8685L32.5571 26.6548L27.5875 35.3749C27.5782 35.3919 27.5644 35.406 27.5476 35.4157C27.5309 35.4254 27.5118 35.4304 27.4924 35.4301C27.4731 35.43 27.4542 35.4249 27.4375 35.4152C27.4208 35.4055 27.407 35.3916 27.3973 35.3749L20.8301 23.9028C20.7921 23.8381 20.8111 23.8039 20.8834 23.8001L21.2942 23.7772L34.0786 23.7544H34.0748Z" fill="#F2F2F0"/>
</g>
<defs>
<filter id="filter0_dddddd_5752_47386" x="1.84673" y="2.36382" width="51.2885" height="51.288" filterUnits="userSpaceOnUse" color-interpolation-filters="sRGB">
<feFlood flood-opacity="0" result="BackgroundImageFix"/>
<feColorMatrix in="SourceAlpha" type="matrix" values="0 0 0 0 0 0 0 0 0 0 0 0 0 0 0 0 0 0 127 0" result="hardAlpha"/>
<feOffset/>
<feGaussianBlur stdDeviation="0.033592"/>
<feColorMatrix type="matrix" values="0 0 0 0 1 0 0 0 0 1 0 0 0 0 1 0 0 0 1 0"/>
<feBlend mode="normal" in2="BackgroundImageFix" result="effect1_dropShadow_5752_47386"/>
<feColorMatrix in="SourceAlpha" type="matrix" values="0 0 0 0 0 0 0 0 0 0 0 0 0 0 0 0 0 0 127 0" result="hardAlpha"/>
<feOffset/>
<feGaussianBlur stdDeviation="0.067184"/>
<feColorMatrix type="matrix" values="0 0 0 0 1 0 0 0 0 1 0 0 0 0 1 0 0 0 1 0"/>
<feBlend mode="normal" in2="effect1_dropShadow_5752_47386" result="effect2_dropShadow_5752_47386"/>
<feColorMatrix in="SourceAlpha" type="matrix" values="0 0 0 0 0 0 0 0 0 0 0 0 0 0 0 0 0 0 127 0" result="hardAlpha"/>
<feOffset/>
<feGaussianBlur stdDeviation="0.235144"/>
<feColorMatrix type="matrix" values="0 0 0 0 1 0 0 0 0 1 0 0 0 0 1 0 0 0 1 0"/>
<feBlend mode="normal" in2="effect2_dropShadow_5752_47386" result="effect3_dropShadow_5752_47386"/>
<feColorMatrix in="SourceAlpha" type="matrix" values="0 0 0 0 0 0 0 0 0 0 0 0 0 0 0 0 0 0 127 0" result="hardAlpha"/>
<feOffset/>
<feGaussianBlur stdDeviation="0.470288"/>
<feColorMatrix type="matrix" values="0 0 0 0 1 0 0 0 0 1 0 0 0 0 1 0 0 0 1 0"/>
<feBlend mode="normal" in2="effect3_dropShadow_5752_47386" result="effect4_dropShadow_5752_47386"/>
<feColorMatrix in="SourceAlpha" type="matrix" values="0 0 0 0 0 0 0 0 0 0 0 0 0 0 0 0 0 0 127 0" result="hardAlpha"/>
<feOffset/>
<feGaussianBlur stdDeviation="0.806209"/>
<feColorMatrix type="matrix" values="0 0 0 0 1 0 0 0 0 1 0 0 0 0 1 0 0 0 1 0"/>
<feBlend mode="normal" in2="effect4_dropShadow_5752_47386" result="effect5_dropShadow_5752_47386"/>
<feColorMatrix in="SourceAlpha" type="matrix" values="0 0 0 0 0 0 0 0 0 0 0 0 0 0 0 0 0 0 127 0" result="hardAlpha"/>
<feOffset/>
<feGaussianBlur stdDeviation="1.41087"/>
<feColorMatrix type="matrix" values="0 0 0 0 1 0 0 0 0 1 0 0 0 0 1 0 0 0 1 0"/>
<feBlend mode="normal" in2="effect5_dropShadow_5752_47386" result="effect6_dropShadow_5752_47386"/>
<feBlend mode="normal" in="SourceGraphic" in2="effect6_dropShadow_5752_47386" result="shape"/>
</filter>
</defs>
</svg>
