<svg width="16" height="16" viewBox="0 0 16 16" fill="none" xmlns="http://www.w3.org/2000/svg">
<path d="M8.93317 1.33203H3.99984C3.64622 1.33203 3.30708 1.47251 3.05703 1.72256C2.80698 1.9726 2.6665 2.31174 2.6665 2.66536V13.332C2.6665 13.6857 2.80698 14.0248 3.05703 14.2748C3.30708 14.5249 3.64622 14.6654 3.99984 14.6654H11.9998C12.3535 14.6654 12.6926 14.5249 12.9426 14.2748C13.1927 14.0248 13.3332 13.6857 13.3332 13.332V8.3987" stroke="#383838" stroke-width="1.5" stroke-linecap="round" stroke-linejoin="round"/>
<path d="M14.2518 3.74946C14.5174 3.48389 14.6666 3.1237 14.6666 2.74813C14.6666 2.37256 14.5174 2.01237 14.2518 1.7468C13.9863 1.48123 13.6261 1.33203 13.2505 1.33203C12.8749 1.33203 12.5147 1.48123 12.2492 1.7468L8.90916 5.08813C8.75065 5.24654 8.63464 5.44235 8.57182 5.65746L8.01382 7.5708C7.99709 7.62816 7.99609 7.68897 8.01092 7.74686C8.02575 7.80474 8.05587 7.85758 8.09812 7.89983C8.14037 7.94209 8.19321 7.9722 8.25109 7.98703C8.30898 8.00186 8.36979 8.00086 8.42715 7.98413L10.3405 7.42613C10.5556 7.36332 10.7514 7.2473 10.9098 7.0888L14.2518 3.74946Z" stroke="#383838" stroke-width="1.5" stroke-linecap="round" stroke-linejoin="round"/>
</svg>
