<svg width="16" height="16" viewBox="0 0 16 16" fill="none" xmlns="http://www.w3.org/2000/svg">
<g clip-path="url(#clip0_6028_8)">
<path d="M8.93332 1.33334H3.99999C3.64637 1.33334 3.30723 1.47381 3.05718 1.72386C2.80713 1.97391 2.66666 2.31305 2.66666 2.66667V13.3333C2.66666 13.687 2.80713 14.0261 3.05718 14.2761C3.30723 14.5262 3.64637 14.6667 3.99999 14.6667H12C12.3536 14.6667 12.6928 14.5262 12.9428 14.2761C13.1928 14.0261 13.3333 13.687 13.3333 13.3333V8.4" stroke="#F5F5F5" stroke-width="1.5" stroke-linecap="round" stroke-linejoin="round"/>
<path d="M14.252 3.75067C14.5176 3.4851 14.6668 3.12491 14.6668 2.74934C14.6668 2.37376 14.5176 2.01357 14.252 1.748C13.9864 1.48243 13.6262 1.33324 13.2507 1.33324C12.8751 1.33324 12.5149 1.48243 12.2493 1.748L8.90934 5.08934C8.75084 5.24775 8.63482 5.44356 8.572 5.65867L8.014 7.572C7.99727 7.62937 7.99627 7.69018 8.0111 7.74806C8.02593 7.80595 8.05605 7.85878 8.0983 7.90104C8.14056 7.94329 8.19339 7.97341 8.25128 7.98824C8.30916 8.00307 8.36997 8.00207 8.42734 7.98534L10.3407 7.42734C10.5558 7.36452 10.7516 7.2485 10.91 7.09L14.252 3.75067Z" stroke="#F3F3F3" stroke-width="1.5" stroke-linecap="round" stroke-linejoin="round"/>
</g>
<defs>
<clipPath id="clip0_6028_8">
<rect width="16" height="16" fill="white"/>
</clipPath>
</defs>
</svg>
