<svg width="66" height="67" viewBox="0 0 66 67" fill="none" xmlns="http://www.w3.org/2000/svg">
<rect x="0.332443" y="0.332443" width="65.3351" height="66.3351" rx="16.5114" fill="black" fill-opacity="0.01"/>
<rect x="0.332443" y="0.332443" width="65.3351" height="66.3351" rx="16.5114" stroke="url(#paint0_linear_5545_48515)" stroke-width="0.664887"/>
<path fill-rule="evenodd" clip-rule="evenodd" d="M53.6913 29.175C54.2323 27.571 54.4199 25.8689 54.2411 24.1856C54.0623 22.5022 53.5215 20.8775 52.6557 19.4229C50.0188 14.8945 44.7213 12.5632 39.5473 13.6595C38.4013 12.3907 36.9997 11.3789 35.4346 10.6907C33.8696 10.0024 32.1765 9.65334 30.4668 9.66637C25.178 9.65553 20.485 13.016 18.8578 17.982C17.1853 18.3168 15.603 19.0035 14.2161 19.9964C12.8291 20.9892 11.6691 22.2657 10.813 23.741C9.51901 25.9386 8.96598 28.494 9.23557 31.03C9.50516 33.5659 10.5831 35.948 12.3102 37.8244C11.7685 39.4286 11.5804 41.131 11.7588 42.8147C11.9372 44.4984 12.4779 46.1236 13.3437 47.5787C15.9805 52.107 21.278 54.4362 26.452 53.342C27.5976 54.6106 28.9989 55.6221 30.5636 56.31C32.1284 56.9979 33.8211 57.3466 35.5303 57.333C40.8235 57.346 45.5187 53.9834 47.1458 49.013C48.8195 48.6783 50.4029 47.9913 51.7906 46.9976C53.1784 46.0039 54.3389 44.7263 55.195 43.2497C56.4865 41.0523 57.0377 38.498 56.7674 35.9635C56.4971 33.429 55.4195 31.0484 53.6935 29.1729L53.6913 29.175ZM35.5325 54.2174C33.4191 54.2225 31.3699 53.4916 29.7367 52.1504C29.8103 52.1114 29.9382 52.042 30.0227 51.99L39.6427 46.5084C39.8827 46.3744 40.0825 46.1785 40.2212 45.9411C40.3599 45.7037 40.4325 45.4335 40.4313 45.1585V31.7772L44.4981 34.0934C44.5415 34.115 44.5697 34.1562 44.5762 34.2017V45.2842C44.5697 50.2112 40.5245 54.2065 35.5325 54.2174ZM16.0823 46.023C15.022 44.2194 14.6394 42.0969 15.0033 40.0365C15.0727 40.0799 15.1983 40.1557 15.2872 40.2055L24.9072 45.6872C25.3947 45.9689 25.9992 45.9689 26.4888 45.6872L38.2322 38.9965V43.6289C38.2331 43.6526 38.2283 43.6763 38.2181 43.6978C38.2079 43.7193 38.1927 43.738 38.1737 43.7524L28.4497 49.2904C24.1185 51.7517 18.587 50.287 16.0845 46.0187L16.0823 46.023ZM13.5495 25.301C14.6139 23.4854 16.2816 22.1006 18.262 21.388L18.2577 21.7152V32.6785C18.2563 32.9538 18.3288 33.2244 18.4675 33.4622C18.6062 33.6999 18.8061 33.8962 19.0463 34.0305L30.7897 40.719L26.725 43.0374C26.7049 43.0503 26.6819 43.058 26.6581 43.0599C26.6343 43.0618 26.6104 43.0578 26.5885 43.0482L16.8623 37.5037C12.5398 35.0337 11.0578 29.578 13.5473 25.3054L13.5495 25.301ZM46.953 32.971L35.2097 26.2804L39.2743 23.9664C39.2942 23.9531 39.3171 23.945 39.3409 23.9427C39.3648 23.9405 39.3888 23.9441 39.4108 23.9534L49.137 29.4935C53.466 31.9635 54.9501 37.4279 52.4498 41.6984C51.3844 43.5129 49.7182 44.8979 47.7395 45.6135V34.323C47.7409 34.0483 47.6686 33.7782 47.5303 33.5408C47.392 33.3035 47.1927 33.1075 46.953 32.9732V32.971ZM50.9981 26.9629C50.9035 26.9053 50.8082 26.849 50.7122 26.7939L41.0922 21.3122C40.8519 21.174 40.5796 21.1013 40.3024 21.1013C40.0252 21.1013 39.7529 21.174 39.5127 21.3122L27.7693 28.0029V23.3705C27.7684 23.3468 27.7732 23.3231 27.7834 23.3016C27.7936 23.2801 27.8088 23.2614 27.8278 23.247L37.5497 17.7112C41.883 15.2477 47.4188 16.7145 49.9148 20.9894C50.97 22.7942 51.3557 24.9089 50.9981 26.9629ZM25.5593 35.2179L21.4925 32.9039C21.4713 32.8935 21.453 32.8779 21.4394 32.8586C21.4257 32.8393 21.4172 32.8169 21.4145 32.7934V21.7109C21.4167 16.7774 25.4727 12.7799 30.4733 12.7842C32.588 12.7842 34.6333 13.5165 36.2605 14.8512C36.1868 14.8902 36.0612 14.9595 35.9767 15.0094L26.3567 20.491C26.1162 20.6247 25.9159 20.8205 25.7768 21.0579C25.6377 21.2953 25.5649 21.5657 25.5658 21.8409L25.5593 35.2157V35.2179ZM27.7693 30.5205L32.9997 27.5414L38.23 30.5205V36.4789L32.9997 39.458L27.7672 36.4789V30.5205H27.7693Z" fill="black"/>
<defs>
<linearGradient id="paint0_linear_5545_48515" x1="0" y1="33.5" x2="66" y2="33.5" gradientUnits="userSpaceOnUse">
<stop stop-color="#4D5DC1"/>
<stop offset="0.125" stop-color="#7188A5"/>
<stop offset="0.538462" stop-color="#9FF7F8"/>
<stop offset="0.846154" stop-color="#9DDB8D"/>
<stop offset="1" stop-color="#3F5899"/>
</linearGradient>
</defs>
</svg>
