<svg width="54" height="33" viewBox="0 0 54 33" fill="none" xmlns="http://www.w3.org/2000/svg">
<rect x="0.623419" y="0.623419" width="51.9747" height="31.7405" rx="4.36394" stroke="black" stroke-width="1.24684"/>
<path d="M6.8455 23.4941V8.98547H12.2862C13.4008 8.98547 14.336 9.19328 15.0916 9.60889C15.852 10.0245 16.4258 10.596 16.8131 11.3233C17.2051 12.0459 17.4011 12.8677 17.4011 13.7886C17.4011 14.719 17.2051 15.5455 16.8131 16.2681C16.4211 16.9907 15.8426 17.5598 15.0775 17.9755C14.3124 18.3864 13.3701 18.5918 12.2508 18.5918H8.64491V16.4311H11.8966C12.5484 16.4311 13.0821 16.3177 13.4977 16.091C13.9133 15.8643 14.2203 15.5526 14.4186 15.1559C14.6217 14.7592 14.7233 14.3034 14.7233 13.7886C14.7233 13.2738 14.6217 12.8204 14.4186 12.4284C14.2203 12.0364 13.9109 11.7318 13.4906 11.5146C13.075 11.2926 12.5389 11.1816 11.8824 11.1816H9.47378V23.4941H6.8455ZM19.5707 23.4941V12.6126H22.1352V23.4941H19.5707ZM20.86 11.0683C20.4539 11.0683 20.1044 10.9337 19.8116 10.6645C19.5187 10.3905 19.3723 10.0623 19.3723 9.67973C19.3723 9.29246 19.5187 8.96422 19.8116 8.69501C20.1044 8.42109 20.4539 8.28413 20.86 8.28413C21.2709 8.28413 21.6204 8.42109 21.9085 8.69501C22.2013 8.96422 22.3477 9.29246 22.3477 9.67973C22.3477 10.0623 22.2013 10.3905 21.9085 10.6645C21.6204 10.9337 21.2709 11.0683 20.86 11.0683ZM27.3369 17.1183V23.4941H24.7723V12.6126H27.2235V14.4616H27.351C27.6013 13.8524 28.0004 13.3683 28.5483 13.0094C29.1009 12.6504 29.7833 12.471 30.5956 12.471C31.3466 12.471 32.0007 12.6315 32.558 12.9527C33.12 13.2738 33.5545 13.739 33.8615 14.3483C34.1732 14.9575 34.3267 15.6967 34.322 16.5657V23.4941H31.7575V16.9624C31.7575 16.2351 31.5686 15.666 31.1907 15.2551C30.8176 14.8442 30.3005 14.6388 29.6393 14.6388C29.1906 14.6388 28.7915 14.7379 28.442 14.9363C28.0972 15.1299 27.8257 15.4109 27.6273 15.7793C27.4337 16.1477 27.3369 16.594 27.3369 17.1183ZM45.5294 15.4889L43.1916 15.7439C43.1254 15.5078 43.0097 15.2858 42.8444 15.078C42.6838 14.8702 42.4666 14.7025 42.1927 14.575C41.9187 14.4475 41.5834 14.3837 41.1867 14.3837C40.653 14.3837 40.2043 14.4994 39.8407 14.7308C39.4817 14.9623 39.3046 15.2622 39.3094 15.6306C39.3046 15.947 39.4203 16.2044 39.6565 16.4027C39.8973 16.6011 40.2941 16.764 40.8466 16.8916L42.7027 17.2883C43.7323 17.5103 44.4974 17.8621 44.9981 18.3438C45.5034 18.8256 45.7584 19.4561 45.7632 20.2354C45.7584 20.9202 45.5577 21.5247 45.161 22.0489C44.769 22.5685 44.2235 22.9746 43.5245 23.2674C42.8255 23.5603 42.0226 23.7067 41.1159 23.7067C39.784 23.7067 38.7119 23.428 37.8996 22.8707C37.0872 22.3087 36.6031 21.5271 36.4473 20.5258L38.9481 20.2849C39.0614 20.7761 39.3023 21.1469 39.6707 21.3972C40.039 21.6475 40.5184 21.7727 41.1088 21.7727C41.718 21.7727 42.2068 21.6475 42.5752 21.3972C42.9483 21.1469 43.1349 20.8375 43.1349 20.4691C43.1349 20.1574 43.0144 19.9 42.7736 19.6969C42.5374 19.4939 42.1691 19.338 41.6684 19.2294L39.8123 18.8397C38.7686 18.6225 37.9964 18.2565 37.4958 17.7417C36.9951 17.2222 36.7472 16.5657 36.7519 15.7722C36.7472 15.1016 36.929 14.5207 37.2974 14.0295C37.6705 13.5336 38.1877 13.151 38.8489 12.8818C39.5148 12.6079 40.2823 12.471 41.1513 12.471C42.4264 12.471 43.4301 12.7425 44.1621 13.2856C44.8989 13.8288 45.3546 14.5632 45.5294 15.4889Z" fill="black"/>
<rect x="46.9873" y="5.27148" width="1.24684" height="22.4431" fill="#171717"/>
</svg>
