<svg width="934" height="941" viewBox="0 0 934 941" fill="none" xmlns="http://www.w3.org/2000/svg">
<circle cx="503.636" cy="510.532" r="428.864" stroke="#F9F8F7" stroke-width="3"/>
<path d="M904.21 485.816C904.209 539.869 888.481 588.742 863.128 624.065C837.773 659.39 802.879 681.067 764.489 681.067C726.099 681.067 691.204 659.39 665.849 624.065C640.496 588.742 624.768 539.869 624.768 485.816C624.768 431.763 640.496 382.888 665.849 347.566C691.204 312.241 726.099 290.564 764.489 290.564C802.879 290.564 837.773 312.241 863.128 347.566C888.482 382.888 904.21 431.763 904.21 485.816Z" stroke="#F9F8F7" stroke-width="3"/>
<path d="M493.057 610.345C550.151 610.345 601.778 626.931 639.093 653.67C676.411 680.412 699.32 717.221 699.32 757.725C699.32 798.229 676.411 835.038 639.093 861.78C601.778 888.519 550.151 905.106 493.057 905.106C435.963 905.106 384.336 888.519 347.021 861.78C309.703 835.038 286.795 798.229 286.795 757.725C286.796 717.221 309.703 680.412 347.021 653.67C384.336 626.931 435.963 610.345 493.057 610.345Z" stroke="#F9F8F7" stroke-width="3"/>
<path d="M217.554 210.658C277.143 152.977 347.768 118.075 413.73 108.221C479.695 98.3672 540.867 113.568 581.834 155.89C622.801 198.212 636.003 259.845 624.009 325.454C612.015 391.061 574.835 460.514 515.246 518.195C455.658 575.876 385.033 610.777 319.071 620.631C253.105 630.485 191.935 615.285 150.968 572.963C110.001 530.641 96.7974 469.008 108.792 403.398C120.785 337.791 157.965 268.339 217.554 210.658Z" stroke="#F9F8F7" stroke-width="3"/>
</svg>
