<svg width="110" height="41" viewBox="0 0 110 41" fill="none" xmlns="http://www.w3.org/2000/svg">
<g filter="url(#filter0_d_6541_5588)">
<rect x="7.14062" y="3.33264" width="95.2183" height="26.6611" rx="7.61746" fill="white"/>
<rect x="7.37867" y="3.57069" width="94.7422" height="26.185" rx="7.37941" stroke="#E5E5E5" stroke-width="0.476091"/>
<rect x="10.9492" y="7.14124" width="19.0437" height="19.0437" rx="3.80873" fill="white"/>
<path d="M19.0426 17.6152L16.6621 15.2348L19.0426 12.8543" stroke="#B2B2B2" stroke-width="0.714137" stroke-linecap="round" stroke-linejoin="round"/>
<path d="M16.6621 15.2348H21.6611C22.0049 15.2348 22.3454 15.3025 22.6631 15.4341C22.9808 15.5657 23.2695 15.7586 23.5126 16.0017C23.7558 16.2449 23.9487 16.5335 24.0802 16.8512C24.2118 17.1689 24.2796 17.5094 24.2796 17.8533C24.2796 18.1971 24.2118 18.5376 24.0802 18.8553C23.9487 19.173 23.7558 19.4617 23.5126 19.7048C23.2695 19.948 22.9808 20.1409 22.6631 20.2725C22.3454 20.404 22.0049 20.4718 21.6611 20.4718H19.9947" stroke="#B2B2B2" stroke-width="0.714137" stroke-linecap="round" stroke-linejoin="round"/>
<rect x="33.8008" y="7.14136" width="19.0437" height="19.0437" rx="3.80873" fill="white"/>
<path d="M44.75 17.6153L47.1305 15.2349L44.75 12.8544" stroke="#B2B2B2" stroke-width="0.714137" stroke-linecap="round" stroke-linejoin="round"/>
<path d="M47.1311 15.2349H42.1322C41.4377 15.2349 40.7717 15.5108 40.2806 16.0018C39.7895 16.4929 39.5137 17.1589 39.5137 17.8534C39.5137 18.1973 39.5814 18.5378 39.713 18.8555C39.8446 19.1731 40.0375 19.4618 40.2806 19.705C40.7717 20.196 41.4377 20.4719 42.1322 20.4719H43.7985" stroke="#B2B2B2" stroke-width="0.714137" stroke-linecap="round" stroke-linejoin="round"/>
<rect x="56.6543" y="7.14136" width="19.0437" height="19.0437" rx="3.80873" fill="white"/>
<path d="M64.2711 12.3784H62.8428C62.5903 12.3784 62.3481 12.4787 62.1695 12.6572C61.9909 12.8358 61.8906 13.078 61.8906 13.3305V14.7588" stroke="#303030" stroke-width="0.714137" stroke-linecap="round" stroke-linejoin="round"/>
<path d="M70.4605 14.7588V13.3305C70.4605 13.078 70.3602 12.8358 70.1816 12.6572C70.0031 12.4787 69.7609 12.3784 69.5084 12.3784H68.0801" stroke="#303030" stroke-width="0.714137" stroke-linecap="round" stroke-linejoin="round"/>
<path d="M61.8906 18.5675V19.9958C61.8906 20.2483 61.9909 20.4905 62.1695 20.6691C62.3481 20.8477 62.5903 20.948 62.8428 20.948H64.2711" stroke="#303030" stroke-width="0.714137" stroke-linecap="round" stroke-linejoin="round"/>
<path d="M68.0801 20.948H69.5084C69.7609 20.948 70.0031 20.8477 70.1816 20.6691C70.3602 20.4905 70.4605 20.2483 70.4605 19.9958V18.5675" stroke="#303030" stroke-width="0.714137" stroke-linecap="round" stroke-linejoin="round"/>
<rect x="79.5059" y="7.14136" width="19.0437" height="19.0437" rx="3.80873" fill="white"/>
<path d="M90.9312 21.4241L90.4551 19.5197" stroke="#303030" stroke-width="0.714137" stroke-linecap="round" stroke-linejoin="round"/>
<path d="M92.3601 17.6106C92.4864 17.6106 92.6075 17.5604 92.6968 17.4711C92.7861 17.3819 92.8362 17.2608 92.8362 17.1345V16.6632C92.8362 16.4106 92.7359 16.1684 92.5573 15.9899C92.3788 15.8113 92.1366 15.711 91.884 15.711H90.4558C90.3295 15.711 90.2084 15.6608 90.1191 15.5715C90.0298 15.4823 89.9797 15.3612 89.9797 15.2349V12.8544C89.9797 12.6019 89.8793 12.3597 89.7008 12.1811C89.5222 12.0026 89.28 11.9023 89.0275 11.9023C88.7749 11.9023 88.5328 12.0026 88.3542 12.1811C88.1756 12.3597 88.0753 12.6019 88.0753 12.8544V15.2349C88.0753 15.3612 88.0251 15.4823 87.9359 15.5715C87.8466 15.6608 87.7255 15.711 87.5992 15.711H86.1709C85.9184 15.711 85.6762 15.8113 85.4976 15.9899C85.3191 16.1684 85.2188 16.4106 85.2188 16.6632V17.1345C85.2188 17.2608 85.2689 17.3819 85.3582 17.4711C85.4475 17.5604 85.5686 17.6106 85.6948 17.6106" stroke="#303030" stroke-width="0.714137" stroke-linecap="round" stroke-linejoin="round"/>
<path d="M85.6946 17.6154H92.3599L93.2992 20.8371C93.316 20.9071 93.3167 20.9799 93.3012 21.0502C93.2858 21.1205 93.2546 21.1864 93.21 21.2429C93.1654 21.2994 93.1086 21.3451 93.0438 21.3765C92.979 21.4078 92.908 21.4241 92.836 21.4241H85.2185C85.1466 21.4241 85.0755 21.4078 85.0107 21.3765C84.9459 21.3451 84.8891 21.2994 84.8445 21.2429C84.8 21.1864 84.7688 21.1205 84.7533 21.0502C84.7378 20.9799 84.7385 20.9071 84.7553 20.8371L85.6946 17.6154Z" stroke="#303030" stroke-width="0.714137" stroke-linecap="round" stroke-linejoin="round"/>
<path d="M87.123 21.4241L87.5991 19.5197" stroke="#303030" stroke-width="0.714137" stroke-linecap="round" stroke-linejoin="round"/>
</g>
<defs>
<filter id="filter0_d_6541_5588" x="-0.000744343" y="2.38419e-06" width="109.501" height="40.9438" filterUnits="userSpaceOnUse" color-interpolation-filters="sRGB">
<feFlood flood-opacity="0" result="BackgroundImageFix"/>
<feColorMatrix in="SourceAlpha" type="matrix" values="0 0 0 0 0 0 0 0 0 0 0 0 0 0 0 0 0 0 127 0" result="hardAlpha"/>
<feOffset dy="3.80873"/>
<feGaussianBlur stdDeviation="3.57068"/>
<feColorMatrix type="matrix" values="0 0 0 0 0 0 0 0 0 0 0 0 0 0 0 0 0 0 0.05 0"/>
<feBlend mode="normal" in2="BackgroundImageFix" result="effect1_dropShadow_6541_5588"/>
<feBlend mode="normal" in="SourceGraphic" in2="effect1_dropShadow_6541_5588" result="shape"/>
</filter>
</defs>
</svg>
