<svg width="29" height="29" viewBox="0 0 29 29" fill="none" xmlns="http://www.w3.org/2000/svg">
<path d="M15.8553 12.3421C16.5624 11.8801 17.5374 12.2012 17.1317 12.7625L16.7914 13.2334C16.4499 13.706 16.5526 14.1889 17.0515 14.4556L17.57 14.7328C18.1597 15.0481 17.4207 15.788 16.5973 15.7066L15.741 15.6219C15.1129 15.5598 14.385 15.7378 13.8437 16.0859L13.0317 16.608C12.3197 17.0657 11.354 16.7385 11.7653 16.1789L12.0937 15.7322C12.4428 15.2571 12.3425 14.7696 11.8402 14.501L11.3286 14.2275C10.7389 13.9122 11.4779 13.1723 12.3013 13.2537L13.1451 13.3371C13.7799 13.3999 14.5157 13.2175 15.0582 12.863L15.8553 12.3421Z" fill="black"/>
<path fill-rule="evenodd" clip-rule="evenodd" d="M8.37014 1.35942C11.8552 -0.266303 15.8434 -0.441018 19.4573 0.873729C23.0712 2.18849 26.0148 4.88507 27.6406 8.37015C29.2663 11.8552 29.441 15.8434 28.1263 19.4573C26.8115 23.0712 24.115 26.0148 20.6299 27.6406C17.1448 29.2663 13.1566 29.441 9.54268 28.1263C6.86551 27.1523 4.55621 25.42 2.878 23.1706C3.08334 23.3054 3.30303 23.4316 3.53721 23.5483C4.57986 24.0679 5.85461 24.3977 7.29527 24.524C8.20526 25.1781 9.20779 25.7108 10.2796 26.1007C13.3563 27.22 16.7516 27.0713 19.7187 25.6872C22.6857 24.3032 24.9814 21.7971 26.1007 18.7204C26.5977 17.3544 26.8446 15.9256 26.8445 14.4994C26.3797 15.2315 25.7972 15.9615 25.1081 16.6735C23.9762 17.843 22.5786 18.9413 20.9951 19.9058C19.4117 20.8703 17.6734 21.6822 15.8795 22.2948C14.0855 22.9075 12.2711 23.3091 10.5398 23.4767C8.80853 23.6443 7.19424 23.5746 5.78917 23.2716C4.38398 22.9686 3.21563 22.4381 2.35074 21.7107C1.83363 21.2758 1.45711 20.7564 1.17568 20.2021L1.17874 20.2006C1.09822 20.0402 1.02748 19.8762 0.966566 19.7091L0.967791 19.7086C-0.285425 16.4531 -0.32655 12.8419 0.873721 9.54268C2.18848 5.92879 4.88506 2.98516 8.37014 1.35942ZM18.7204 2.89928C15.6437 1.77997 12.2484 1.92869 9.28133 3.31276C6.3143 4.69683 4.0186 7.2029 2.89927 10.2796C2.40325 11.643 2.08291 12.9254 2.00037 14.189C2.46057 13.4715 3.03351 12.7565 3.70893 12.0587C4.84082 10.8892 6.23841 9.79083 7.82184 8.82633C9.40527 7.86184 11.1436 7.05009 12.9375 6.4374C14.7314 5.82472 16.5459 5.42308 18.2772 5.25549C19.3308 5.1535 20.3411 5.13936 21.2872 5.21224C21.5504 5.4382 21.8044 5.67549 22.0484 5.92366C22.6313 6.51646 23.1513 7.16512 23.6015 7.85904C23.2935 7.74763 22.9513 7.64911 22.5734 7.56761C21.4258 7.32012 20.0396 7.25036 18.4848 7.40087C16.9342 7.55097 15.2838 7.91371 13.6342 8.47711C11.9853 9.04027 10.3897 9.78598 8.94309 10.6671C7.49484 11.5493 6.24596 12.5366 5.2577 13.5577C4.26533 14.583 3.591 15.5849 3.20888 16.4848C2.82855 17.3804 2.76722 18.0993 2.86724 18.6384C2.90208 18.8262 2.95941 19.0088 3.04267 19.1858C3.289 19.6977 3.77028 20.1983 4.57698 20.6003C5.53887 21.0797 6.90514 21.3937 8.62644 21.4075C10.336 21.4213 12.2609 21.1371 14.2381 20.5528C16.2127 19.9694 18.1458 19.1142 19.873 18.0623L19.8744 18.0647C21.3224 17.1826 22.5711 16.1954 23.5592 15.1745C24.5516 14.1492 25.226 13.1473 25.6081 12.2475C25.9884 11.3518 26.0498 10.6329 25.9497 10.0937C25.9234 9.95164 25.9008 9.79181 25.8519 9.64996C25.7991 9.5264 25.7442 9.40349 25.6872 9.28133C24.3032 6.31431 21.7971 4.0186 18.7204 2.89928Z" fill="black"/>
</svg>
