<svg width="54" height="54" viewBox="0 0 54 54" fill="none" xmlns="http://www.w3.org/2000/svg">
<path d="M29.4991 22.9627C30.8146 22.1031 32.6287 22.7007 31.8739 23.745L31.2407 24.6211C30.6053 25.5002 30.7965 26.3987 31.7246 26.8949L32.6893 27.4107C33.7864 27.9974 32.4115 29.3739 30.8796 29.2224L29.2865 29.0649C28.1178 28.9494 26.7636 29.2805 25.7564 29.9281L24.2457 30.8995C22.9211 31.7511 21.1243 31.1424 21.8896 30.1012L22.5005 29.2701C23.1502 28.3862 22.9634 27.4791 22.0289 26.9794L21.0771 26.4705C19.9799 25.8839 21.3549 24.5073 22.8868 24.6587L24.4568 24.8139C25.6377 24.9307 27.0068 24.5914 28.016 23.9319L29.4991 22.9627Z" fill="#D1D1D1"/>
<path fill-rule="evenodd" clip-rule="evenodd" d="M15.5728 2.52923C22.0569 -0.495462 29.477 -0.820523 36.2007 1.62559C42.9244 4.07172 48.4011 9.08877 51.4258 15.5728C54.4505 22.0569 54.7756 29.477 52.3295 36.2007C49.8834 42.9244 44.8664 48.4011 38.3823 51.4258C31.8982 54.4505 24.4781 54.7756 17.7543 52.3295C12.7734 50.5174 8.47692 47.2944 5.35457 43.1094C5.73661 43.3602 6.14536 43.595 6.58104 43.8121C8.52092 44.7789 10.8926 45.3924 13.573 45.6273C15.266 46.8443 17.1313 47.8354 19.1254 48.5609C24.8496 50.6434 31.1667 50.3667 36.687 47.7916C42.2072 45.2165 46.4784 40.5539 48.5609 34.8297C49.4855 32.2882 49.945 29.6299 49.9448 26.9764C49.0799 28.3385 47.9963 29.6967 46.714 31.0215C44.6081 33.1973 42.0079 35.2408 39.0619 37.0352C36.1159 38.8297 32.8817 40.3401 29.5441 41.48C26.2064 42.6199 22.8306 43.367 19.6095 43.6788C16.3885 43.9906 13.385 43.861 10.7709 43.2973C8.15649 42.7334 5.98275 41.7465 4.3736 40.3932C3.4115 39.584 2.71099 38.6177 2.18737 37.5863L2.19307 37.5837C2.04326 37.2852 1.91165 36.98 1.79832 36.6692L1.80059 36.6683C-0.531039 30.6113 -0.607553 23.8926 1.62558 17.7544C4.07172 11.0306 9.08875 5.55395 15.5728 2.52923ZM34.8297 5.39417C29.1054 3.31167 22.7883 3.58837 17.2681 6.16345C11.7479 8.73855 7.47668 13.4011 5.39416 19.1254C4.4713 21.6621 3.8753 24.0479 3.72173 26.3989C4.57794 25.0641 5.6439 23.7338 6.90053 22.4354C9.00644 20.2596 11.6067 18.216 14.5527 16.4216C17.4987 14.6271 20.7329 13.1168 24.0705 11.9769C27.4081 10.837 30.7839 10.0898 34.005 9.77794C35.9653 9.58819 37.845 9.56188 39.6053 9.69748C40.095 10.1179 40.5676 10.5594 41.0215 11.0211C42.106 12.124 43.0734 13.3309 43.9111 14.6219C43.338 14.4146 42.7014 14.2313 41.9983 14.0797C39.8631 13.6192 37.2841 13.4894 34.3914 13.7695C31.5065 14.0487 28.4358 14.7236 25.3666 15.7718C22.2988 16.8196 19.3302 18.207 16.6388 19.8464C13.9443 21.4877 11.6207 23.3246 9.78206 25.2243C7.93572 27.1319 6.68112 28.996 5.97019 30.6702C5.26257 32.3367 5.14846 33.674 5.33456 34.6772C5.39937 35.0265 5.50604 35.3662 5.66095 35.6956C6.11924 36.6479 7.01468 37.5794 8.51557 38.3273C10.3052 39.2192 12.8471 39.8034 16.0497 39.8292C19.2304 39.8548 22.8116 39.326 26.4903 38.239C30.1641 37.1534 33.7607 35.5623 36.9741 33.6053L36.9768 33.6097C39.6708 31.9686 41.994 30.132 43.8324 28.2325C45.6788 26.3249 46.9334 24.4609 47.6444 22.7866C48.352 21.1202 48.4661 19.7828 48.28 18.7796C48.231 18.5152 48.1889 18.2179 48.0979 17.9539C47.9997 17.7241 47.8976 17.4954 47.7916 17.2681C45.2165 11.7479 40.5539 7.47669 34.8297 5.39417Z" fill="#D1D1D1"/>
</svg>
